<svg xmlns="http://www.w3.org/2000/svg" viewBox="0 0 1600 900" width="1600" height="900"><defs>
    <filter id="paper" x="-10%" y="-10%" width="120%" height="120%"><feTurbulence type="fractalNoise" baseFrequency="0.55" numOctaves="3" seed="56" result="n"/><feColorMatrix in="n" type="saturate" values="0" result="g"/><feComponentTransfer in="g" result="a"><feFuncA type="table" tableValues="0 .12"/></feComponentTransfer><feBlend in="SourceGraphic" in2="a" mode="multiply"/></filter>
    <filter id="rough" x="-10%" y="-10%" width="120%" height="120%"><feTurbulence type="fractalNoise" baseFrequency="0.012" numOctaves="2" seed="59" result="noise"/><feDisplacementMap in="SourceGraphic" in2="noise" scale="1.4" xChannelSelector="R" yChannelSelector="G"/></filter>
    <filter id="soft"><feGaussianBlur stdDeviation="7"/></filter>
    <linearGradient id="wash" x1="0" y1="0" x2="1" y2="1"><stop offset="0" stop-color="#d8e4df" stop-opacity=".32"/><stop offset=".55" stop-color="#ffffff" stop-opacity="0"/><stop offset="1" stop-color="#53605d" stop-opacity=".16"/></linearGradient>
    <linearGradient id="floorWash" x1="0" y1="0" x2="0" y2="1"><stop offset="0" stop-color="#ad9577"/><stop offset="1" stop-color="#80694f"/></linearGradient>
    <linearGradient id="windowGlow" x1="0" y1="0" x2="1" y2="1"><stop offset="0" stop-color="#dbe7df"/><stop offset="1" stop-color="#90aaa8"/></linearGradient>
    <radialGradient id="skinShade"><stop offset="0" stop-color="#e0b89b"/><stop offset="1" stop-color="#c28f74"/></radialGradient>
    </defs><rect width="1600" height="900" fill="#736650"/><g filter="url(#rough)"><rect width="1600" height="900" fill="#736650"/><rect x="100" y="75" width="1400" height="735" fill="#355044" stroke="#604a37" stroke-width="26"/><g transform="rotate(-2 275 240)"><rect x="175" y="170" width="200" height="145" fill="#e8dec6" stroke="#806f58" stroke-width="3"/><circle cx="275" cy="182" r="13" fill="#9a5e54" stroke="#69433e" stroke-width="2"/><text x="207" y="252" font-family="serif" font-size="24" fill="#564c40">花店订单</text></g><g transform="rotate(1 545 240)"><rect x="445" y="170" width="200" height="145" fill="#e8dec6" stroke="#806f58" stroke-width="3"/><circle cx="545" cy="182" r="13" fill="#9a5e54" stroke="#69433e" stroke-width="2"/><text x="477" y="252" font-family="serif" font-size="24" fill="#564c40">桔梗记录</text></g><g transform="rotate(-1 815 240)"><rect x="715" y="170" width="200" height="145" fill="#e8dec6" stroke="#806f58" stroke-width="3"/><circle cx="815" cy="182" r="13" fill="#9a5e54" stroke="#69433e" stroke-width="2"/><text x="747" y="252" font-family="serif" font-size="24" fill="#564c40">作文残页</text></g><g transform="rotate(2 1085 240)"><rect x="985" y="170" width="200" height="145" fill="#e8dec6" stroke="#806f58" stroke-width="3"/><circle cx="1085" cy="182" r="13" fill="#9a5e54" stroke="#69433e" stroke-width="2"/><text x="1017" y="252" font-family="serif" font-size="24" fill="#564c40">毕业日期</text></g><g transform="rotate(-0.5 1355 240)"><rect x="1255" y="170" width="200" height="145" fill="#e8dec6" stroke="#806f58" stroke-width="3"/><circle cx="1355" cy="182" r="13" fill="#9a5e54" stroke="#69433e" stroke-width="2"/><text x="1287" y="252" font-family="serif" font-size="24" fill="#564c40">广播录音</text></g><g transform="rotate(-2 275 530)"><rect x="175" y="460" width="200" height="145" fill="#e8dec6" stroke="#806f58" stroke-width="3"/><circle cx="275" cy="472" r="13" fill="#9a5e54" stroke="#69433e" stroke-width="2"/><text x="207" y="542" font-family="serif" font-size="24" fill="#564c40">毕业照</text></g><g transform="rotate(1 545 530)"><rect x="445" y="460" width="200" height="145" fill="#e8dec6" stroke="#806f58" stroke-width="3"/><circle cx="545" cy="472" r="13" fill="#9a5e54" stroke="#69433e" stroke-width="2"/><text x="477" y="542" font-family="serif" font-size="24" fill="#564c40">植物册</text></g><g transform="rotate(-1 815 530)"><rect x="715" y="460" width="200" height="145" fill="#e8dec6" stroke="#806f58" stroke-width="3"/><circle cx="815" cy="472" r="13" fill="#9a5e54" stroke="#69433e" stroke-width="2"/><text x="747" y="542" font-family="serif" font-size="24" fill="#564c40">留言</text></g><g transform="rotate(2 1085 530)"><rect x="985" y="460" width="200" height="145" fill="#e8dec6" stroke="#806f58" stroke-width="3"/><circle cx="1085" cy="472" r="13" fill="#9a5e54" stroke="#69433e" stroke-width="2"/><text x="1017" y="542" font-family="serif" font-size="24" fill="#564c40">车票</text></g><g transform="rotate(-0.5 1355 530)"><rect x="1255" y="460" width="200" height="145" fill="#e8dec6" stroke="#806f58" stroke-width="3"/><circle cx="1355" cy="472" r="13" fill="#9a5e54" stroke="#69433e" stroke-width="2"/><text x="1287" y="542" font-family="serif" font-size="24" fill="#564c40">鸡米花小票</text></g><path d="M275 330 C440 410 575 340 720 390 S1050 320 1240 420" fill="none" stroke="#d3c59d" stroke-width="4" opacity=".7"/></g><rect width="1600" height="900" fill="url(#wash)" pointer-events="none"/><rect width="1600" height="900" fill="transparent" filter="url(#paper)" opacity=".65" pointer-events="none"/></svg>