<svg xmlns="http://www.w3.org/2000/svg" viewBox="0 0 1600 900" width="1600" height="900"><defs>
    <filter id="paper" x="-10%" y="-10%" width="120%" height="120%"><feTurbulence type="fractalNoise" baseFrequency="0.55" numOctaves="3" seed="14" result="n"/><feColorMatrix in="n" type="saturate" values="0" result="g"/><feComponentTransfer in="g" result="a"><feFuncA type="table" tableValues="0 .12"/></feComponentTransfer><feBlend in="SourceGraphic" in2="a" mode="multiply"/></filter>
    <filter id="rough" x="-10%" y="-10%" width="120%" height="120%"><feTurbulence type="fractalNoise" baseFrequency="0.012" numOctaves="2" seed="17" result="noise"/><feDisplacementMap in="SourceGraphic" in2="noise" scale="1.4" xChannelSelector="R" yChannelSelector="G"/></filter>
    <filter id="soft"><feGaussianBlur stdDeviation="7"/></filter>
    <linearGradient id="wash" x1="0" y1="0" x2="1" y2="1"><stop offset="0" stop-color="#f0d7ad" stop-opacity=".32"/><stop offset=".55" stop-color="#ffffff" stop-opacity="0"/><stop offset="1" stop-color="#53605d" stop-opacity=".16"/></linearGradient>
    <linearGradient id="floorWash" x1="0" y1="0" x2="0" y2="1"><stop offset="0" stop-color="#ad9577"/><stop offset="1" stop-color="#80694f"/></linearGradient>
    <linearGradient id="windowGlow" x1="0" y1="0" x2="1" y2="1"><stop offset="0" stop-color="#dbe7df"/><stop offset="1" stop-color="#90aaa8"/></linearGradient>
    <radialGradient id="skinShade"><stop offset="0" stop-color="#e0b89b"/><stop offset="1" stop-color="#c28f74"/></radialGradient>
    </defs><rect width="1600" height="900" fill="#d9d1bf"/><g filter="url(#rough)"><rect width="1600" height="600" fill="#d8d1c0"/><rect y="600" width="1600" height="300" fill="#9a856c"/><rect x="70" y="80" width="300" height="235" fill="#aeb9b4" stroke="#6d6255" stroke-width="8"/><rect x="85" y="95" width="270" height="55" fill="#e7dfcc" stroke="#867966"/><text x="115" y="132" font-family="serif" font-size="21" fill="#4f473e">米饭窗口</text><rect x="105" y="210" width="230" height="70" fill="#72695e"/><circle cx="140" cy="245" r="18" fill="#bdad8e"/><circle cx="190" cy="245" r="18" fill="#9a7a5c"/><circle cx="240" cy="245" r="18" fill="#7d8d68"/><rect x="440" y="80" width="300" height="235" fill="#aeb9b4" stroke="#6d6255" stroke-width="8"/><rect x="455" y="95" width="270" height="55" fill="#e7dfcc" stroke="#867966"/><text x="485" y="132" font-family="serif" font-size="21" fill="#4f473e">面食窗口</text><rect x="475" y="210" width="230" height="70" fill="#72695e"/><circle cx="510" cy="245" r="18" fill="#bdad8e"/><circle cx="560" cy="245" r="18" fill="#9a7a5c"/><circle cx="610" cy="245" r="18" fill="#7d8d68"/><rect x="810" y="80" width="300" height="235" fill="#aeb9b4" stroke="#6d6255" stroke-width="8"/><rect x="825" y="95" width="270" height="55" fill="#e7dfcc" stroke="#867966"/><text x="855" y="132" font-family="serif" font-size="21" fill="#4f473e">小炒窗口</text><rect x="845" y="210" width="230" height="70" fill="#72695e"/><circle cx="880" cy="245" r="18" fill="#bdad8e"/><circle cx="930" cy="245" r="18" fill="#9a7a5c"/><circle cx="980" cy="245" r="18" fill="#7d8d68"/><rect x="1180" y="80" width="300" height="235" fill="#aeb9b4" stroke="#6d6255" stroke-width="8"/><rect x="1195" y="95" width="270" height="55" fill="#e7dfcc" stroke="#867966"/><text x="1225" y="132" font-family="serif" font-size="21" fill="#4f473e">点心窗口</text><rect x="1215" y="210" width="230" height="70" fill="#72695e"/><circle cx="1250" cy="245" r="18" fill="#bdad8e"/><circle cx="1300" cy="245" r="18" fill="#9a7a5c"/><circle cx="1350" cy="245" r="18" fill="#7d8d68"/><ellipse cx="260" cy="620" rx="225" ry="70" fill="#9b8469" stroke="#5d5146" stroke-width="5"/><path d="M 130 665 l -25 150 M 390 665 l 25 150" stroke="#5d5d58" stroke-width="12"/><ellipse cx="780" cy="620" rx="225" ry="70" fill="#9b8469" stroke="#5d5146" stroke-width="5"/><path d="M 650 665 l -25 150 M 910 665 l 25 150" stroke="#5d5d58" stroke-width="12"/><ellipse cx="1280" cy="620" rx="225" ry="70" fill="#9b8469" stroke="#5d5146" stroke-width="5"/><path d="M 1150 665 l -25 150 M 1410 665 l 25 150" stroke="#5d5d58" stroke-width="12"/><g><ellipse cx="575" cy="701.9" rx="22.32" ry="4.34" fill="#2d2925" opacity=".13"/><path d="M557.02,631.84 Q559.5,659.74 561.36,691.36 L573.14,691.36 Q572.52,659.12 573.14,631.84 Z" fill="#44515a" stroke="#3d352f" stroke-width="1.054"/>
        <path d="M576.86,631.84 Q577.48,659.12 579.34,691.36 L591.74,691.36 Q591.74,658.5 592.98,631.84 Z" fill="#44515a" stroke="#3d352f" stroke-width="1.054"/>
        <path d="M558.26,690.12 q 10.54,-1.24 16.74,2.48 q 1.8599999999999999,4.34 -4.34,6.2 h-16.74z" fill="#3a332e" stroke="#3d352f" stroke-width="0.806"/><path d="M578.1,690.74 q 10.54,-1.24 17.36,2.48 q 1.8599999999999999,4.34 -4.34,6.2 h-17.36z" fill="#3a332e" stroke="#3d352f" stroke-width="0.806"/><path d="M548.96,582.86 C540.9,601.46 541.52,616.96 547.1,631.22 L554.54,631.84 C551.44,616.34 553.3,599.6 556.4,585.96 Z" fill="#d7e0df" stroke="#3d352f" stroke-width="0.992"/><ellipse cx="548.34" cy="632.46" rx="3.1" ry="4.34" fill="#d4aa8e" stroke="#3d352f" stroke-width="0.62"/>
        <path d="M601.04,582.86 C609.1,600.84 609.1,617.58 604.14,630.6 L596.7,632.46 C599.18,615.72 596.7,599.6 593.6,585.96 Z" fill="#d7e0df" stroke="#3d352f" stroke-width="0.992"/><ellipse cx="604.14" cy="630.6" rx="3.1" ry="4.34" fill="#d4aa8e" stroke="#3d352f" stroke-width="0.62"/><path d="M548.34,579.76 Q575,574.8 601.66,579.76 L594.22,631.84 Q575,636.8000000000001 555.78,631.84 Z" fill="#d7e0df" stroke="#3d352f" stroke-width="1.24"/>
    <path d="M565.7,579.14 L575,592.16 L584.3,579.14" fill="#eee9df" stroke="#746c62" stroke-width="0.682"/><path d="M575,592.16 V626.88" stroke="#7d8581" stroke-width="0.744"/><circle cx="575" cy="602.7" r="0.9299999999999999" fill="#6f7773"/><circle cx="575" cy="614.48" r="0.9299999999999999" fill="#6f7773"/>
    <path d="M551.44,597.12 q11.16,3.1 22.32,1 M576.86,598.36 q11.16,2.48 21.08,-2" fill="none" stroke="#9daaa7" stroke-width="0.62" opacity=".65"/><path d="M562.6,626.88 q4.96,-6.82 9.3,0 M579.34,628.12 q4.96,-5.58 8.68,0" fill="none" stroke="#75817e" stroke-width="0.558" opacity=".55"/><path d="M570.04,567.98 L570.04,577.9 Q575,582.86 579.96,577.9 L579.96,567.98Z" fill="#d4aa8e" stroke="#3d352f" stroke-width="0.62"/>
    <ellipse cx="564.7328" cy="556.1504" rx="2.05344" ry="3.1372" fill="#d4aa8e" stroke="#3d352f" stroke-width="0.5704"/>
    <ellipse cx="585.2672" cy="556.1504" rx="2.05344" ry="3.1372" fill="#d4aa8e" stroke="#3d352f" stroke-width="0.5704"/>
    <path d="M 575,542.4608000000001 C 567.5848,542.4608000000001 564.7328,548.7352000000001 564.7328,556.7208 C 564.7328,564.1360000000001 569.8664,569.2696000000001 575,569.84 C 580.704,569.2696000000001 585.2672,563.5656 585.2672,556.1504 C 585.2672,548.7352000000001 582.4152,542.4608000000001 575,542.4608000000001 Z" fill="url(#skinShade)" stroke="#3d352f" stroke-width="0.8556"/>
    <path d="M 564.7328,551.5872 Q 567.5848,539.6088000000001 576.1408,540.7496 Q 584.6968,540.7496 585.8376,551.5872 Q 579.5632,548.1648 575.5704,549.3056 Q 570.4368,547.024 564.7328,551.5872 Z" fill="#30261f" stroke="#3d352f" stroke-width="0.8556"/>
    <path d="M 568.7256,553.2984 q 2.2816,-1.1408 4.5632,0 M 576.7112,553.2984 q 2.2816,-1.1408 4.5632,0" fill="none" stroke="#3d352f" stroke-width="0.6274400000000001"/>
    <ellipse cx="571.0072" cy="556.1504" rx="0.8556" ry="1.02672" fill="#3d352f"/><ellipse cx="578.9928" cy="556.1504" rx="0.8556" ry="1.02672" fill="#3d352f"/>
    <path d="M 575,556.7208 q -0.8556,2.8520000000000003 0.8556,3.9928" fill="none" stroke="#806453" stroke-width="0.51336"/>
    <path d="M 572.148,564.1360000000001 Q 575,565.8472 578.4224,564.1360000000001" fill="none" stroke="#855f57" stroke-width="0.6274400000000001" stroke-linecap="round"/>
    </g><g><ellipse cx="700" cy="701.9" rx="22.32" ry="4.34" fill="#2d2925" opacity=".13"/><path d="M682.02,631.84 Q684.5,659.74 686.36,691.36 L698.14,691.36 Q697.52,659.12 698.14,631.84 Z" fill="#44515a" stroke="#3d352f" stroke-width="1.054"/>
        <path d="M701.86,631.84 Q702.48,659.12 704.34,691.36 L716.74,691.36 Q716.74,658.5 717.98,631.84 Z" fill="#44515a" stroke="#3d352f" stroke-width="1.054"/>
        <path d="M683.26,690.12 q 10.54,-1.24 16.74,2.48 q 1.8599999999999999,4.34 -4.34,6.2 h-16.74z" fill="#3a332e" stroke="#3d352f" stroke-width="0.806"/><path d="M703.1,690.74 q 10.54,-1.24 17.36,2.48 q 1.8599999999999999,4.34 -4.34,6.2 h-17.36z" fill="#3a332e" stroke="#3d352f" stroke-width="0.806"/><path d="M673.96,582.86 C665.9,601.46 666.52,616.96 672.1,631.22 L679.54,631.84 C676.44,616.34 678.3,599.6 681.4,585.96 Z" fill="#d7e0df" stroke="#3d352f" stroke-width="0.992"/><ellipse cx="673.34" cy="632.46" rx="3.1" ry="4.34" fill="#d4aa8e" stroke="#3d352f" stroke-width="0.62"/>
        <path d="M726.04,582.86 C734.1,600.84 734.1,617.58 729.14,630.6 L721.7,632.46 C724.18,615.72 721.7,599.6 718.6,585.96 Z" fill="#d7e0df" stroke="#3d352f" stroke-width="0.992"/><ellipse cx="729.14" cy="630.6" rx="3.1" ry="4.34" fill="#d4aa8e" stroke="#3d352f" stroke-width="0.62"/><path d="M673.34,579.76 Q700,574.8 726.66,579.76 L719.22,631.84 Q700,636.8000000000001 680.78,631.84 Z" fill="#d7e0df" stroke="#3d352f" stroke-width="1.24"/>
    <path d="M690.7,579.14 L700,592.16 L709.3,579.14" fill="#eee9df" stroke="#746c62" stroke-width="0.682"/><path d="M700,592.16 V626.88" stroke="#7d8581" stroke-width="0.744"/><circle cx="700" cy="602.7" r="0.9299999999999999" fill="#6f7773"/><circle cx="700" cy="614.48" r="0.9299999999999999" fill="#6f7773"/>
    <path d="M676.44,597.12 q11.16,3.1 22.32,1 M701.86,598.36 q11.16,2.48 21.08,-2" fill="none" stroke="#9daaa7" stroke-width="0.62" opacity=".65"/><path d="M687.6,626.88 q4.96,-6.82 9.3,0 M704.34,628.12 q4.96,-5.58 8.68,0" fill="none" stroke="#75817e" stroke-width="0.558" opacity=".55"/><path d="M695.04,567.98 L695.04,577.9 Q700,582.86 704.96,577.9 L704.96,567.98Z" fill="#d4aa8e" stroke="#3d352f" stroke-width="0.62"/><path d="M 689.7328,549.8760000000001 Q 685.74,570.4104000000001 691.444,582.9592 L 698.2888,573.2624000000001 L 702.852,573.2624000000001 L 710.2672,582.9592 Q 714.8304,569.84 710.2672,549.8760000000001 Z" fill="#49352a" stroke="#3d352f" stroke-width="0.8556"/>
    <ellipse cx="689.7328" cy="556.1504" rx="2.05344" ry="3.1372" fill="#d4aa8e" stroke="#3d352f" stroke-width="0.5704"/>
    <ellipse cx="710.2672" cy="556.1504" rx="2.05344" ry="3.1372" fill="#d4aa8e" stroke="#3d352f" stroke-width="0.5704"/>
    <path d="M 700,542.4608000000001 C 692.5848,542.4608000000001 689.7328,548.7352000000001 689.7328,556.7208 C 689.7328,564.1360000000001 694.8664,569.2696000000001 700,569.84 C 705.704,569.2696000000001 710.2672,563.5656 710.2672,556.1504 C 710.2672,548.7352000000001 707.4152,542.4608000000001 700,542.4608000000001 Z" fill="url(#skinShade)" stroke="#3d352f" stroke-width="0.8556"/>
    <path d="M 689.7328,551.5872 Q 692.5848,539.6088000000001 701.1408,540.7496 Q 709.6968,540.7496 710.8376,551.5872 Q 704.5632,548.1648 700.5704,549.3056 Q 695.4368,547.024 689.7328,551.5872 Z" fill="#49352a" stroke="#3d352f" stroke-width="0.8556"/>
    <path d="M 693.7256,553.2984 q 2.2816,-1.1408 4.5632,0 M 701.7112,553.2984 q 2.2816,-1.1408 4.5632,0" fill="none" stroke="#3d352f" stroke-width="0.6274400000000001"/>
    <ellipse cx="696.0072" cy="556.1504" rx="0.8556" ry="1.02672" fill="#3d352f"/><ellipse cx="703.9928" cy="556.1504" rx="0.8556" ry="1.02672" fill="#3d352f"/>
    <path d="M 700,556.7208 q -0.8556,2.8520000000000003 0.8556,3.9928" fill="none" stroke="#806453" stroke-width="0.51336"/>
    <path d="M 697.148,564.1360000000001 Q 700,564.7064 703.4224,564.1360000000001" fill="none" stroke="#855f57" stroke-width="0.6274400000000001" stroke-linecap="round"/>
    </g><g><ellipse cx="860" cy="701.9" rx="22.32" ry="4.34" fill="#2d2925" opacity=".13"/><path d="M842.02,631.84 Q844.5,659.74 846.36,691.36 L858.14,691.36 Q857.52,659.12 858.14,631.84 Z" fill="#44515a" stroke="#3d352f" stroke-width="1.054"/>
        <path d="M861.86,631.84 Q862.48,659.12 864.34,691.36 L876.74,691.36 Q876.74,658.5 877.98,631.84 Z" fill="#44515a" stroke="#3d352f" stroke-width="1.054"/>
        <path d="M843.26,690.12 q 10.54,-1.24 16.74,2.48 q 1.8599999999999999,4.34 -4.34,6.2 h-16.74z" fill="#3a332e" stroke="#3d352f" stroke-width="0.806"/><path d="M863.1,690.74 q 10.54,-1.24 17.36,2.48 q 1.8599999999999999,4.34 -4.34,6.2 h-17.36z" fill="#3a332e" stroke="#3d352f" stroke-width="0.806"/><path d="M833.96,582.86 C825.9,601.46 826.52,616.96 832.1,631.22 L839.54,631.84 C836.44,616.34 838.3,599.6 841.4,585.96 Z" fill="#d7e0df" stroke="#3d352f" stroke-width="0.992"/><ellipse cx="833.34" cy="632.46" rx="3.1" ry="4.34" fill="#d4aa8e" stroke="#3d352f" stroke-width="0.62"/>
        <path d="M886.04,582.86 C894.1,600.84 894.1,617.58 889.14,630.6 L881.7,632.46 C884.18,615.72 881.7,599.6 878.6,585.96 Z" fill="#d7e0df" stroke="#3d352f" stroke-width="0.992"/><ellipse cx="889.14" cy="630.6" rx="3.1" ry="4.34" fill="#d4aa8e" stroke="#3d352f" stroke-width="0.62"/><path d="M833.34,579.76 Q860,574.8 886.66,579.76 L879.22,631.84 Q860,636.8000000000001 840.78,631.84 Z" fill="#d7e0df" stroke="#3d352f" stroke-width="1.24"/>
    <path d="M850.7,579.14 L860,592.16 L869.3,579.14" fill="#eee9df" stroke="#746c62" stroke-width="0.682"/><path d="M860,592.16 V626.88" stroke="#7d8581" stroke-width="0.744"/><circle cx="860" cy="602.7" r="0.9299999999999999" fill="#6f7773"/><circle cx="860" cy="614.48" r="0.9299999999999999" fill="#6f7773"/>
    <path d="M836.44,597.12 q11.16,3.1 22.32,1 M861.86,598.36 q11.16,2.48 21.08,-2" fill="none" stroke="#9daaa7" stroke-width="0.62" opacity=".65"/><path d="M847.6,626.88 q4.96,-6.82 9.3,0 M864.34,628.12 q4.96,-5.58 8.68,0" fill="none" stroke="#75817e" stroke-width="0.558" opacity=".55"/><path d="M855.04,567.98 L855.04,577.9 Q860,582.86 864.96,577.9 L864.96,567.98Z" fill="#d4aa8e" stroke="#3d352f" stroke-width="0.62"/>
    <ellipse cx="849.7328" cy="556.1504" rx="2.05344" ry="3.1372" fill="#d4aa8e" stroke="#3d352f" stroke-width="0.5704"/>
    <ellipse cx="870.2672" cy="556.1504" rx="2.05344" ry="3.1372" fill="#d4aa8e" stroke="#3d352f" stroke-width="0.5704"/>
    <path d="M 860,542.4608000000001 C 852.5848,542.4608000000001 849.7328,548.7352000000001 849.7328,556.7208 C 849.7328,564.1360000000001 854.8664,569.2696000000001 860,569.84 C 865.704,569.2696000000001 870.2672,563.5656 870.2672,556.1504 C 870.2672,548.7352000000001 867.4152,542.4608000000001 860,542.4608000000001 Z" fill="url(#skinShade)" stroke="#3d352f" stroke-width="0.8556"/>
    <path d="M 849.7328,551.5872 Q 852.5848,539.6088000000001 861.1408,540.7496 Q 869.6968,540.7496 870.8376,551.5872 Q 864.5632,548.1648 860.5704,549.3056 Q 855.4368,547.024 849.7328,551.5872 Z" fill="#30261f" stroke="#3d352f" stroke-width="0.8556"/>
    <path d="M 853.7256,553.2984 q 2.2816,-1.1408 4.5632,0 M 861.7112,553.2984 q 2.2816,-1.1408 4.5632,0" fill="none" stroke="#3d352f" stroke-width="0.6274400000000001"/>
    <ellipse cx="856.0072" cy="556.1504" rx="0.8556" ry="1.02672" fill="#3d352f"/><ellipse cx="863.9928" cy="556.1504" rx="0.8556" ry="1.02672" fill="#3d352f"/>
    <path d="M 860,556.7208 q -0.8556,2.8520000000000003 0.8556,3.9928" fill="none" stroke="#806453" stroke-width="0.51336"/>
    <path d="M 857.148,564.1360000000001 Q 860,565.8472 863.4224,564.1360000000001" fill="none" stroke="#855f57" stroke-width="0.6274400000000001" stroke-linecap="round"/>
    </g><g><ellipse cx="980" cy="701.9" rx="22.32" ry="4.34" fill="#2d2925" opacity=".13"/><path d="M962.02,631.84 Q964.5,659.74 966.36,691.36 L978.14,691.36 Q977.52,659.12 978.14,631.84 Z" fill="#44515a" stroke="#3d352f" stroke-width="1.054"/>
        <path d="M981.86,631.84 Q982.48,659.12 984.34,691.36 L996.74,691.36 Q996.74,658.5 997.98,631.84 Z" fill="#44515a" stroke="#3d352f" stroke-width="1.054"/>
        <path d="M963.26,690.12 q 10.54,-1.24 16.74,2.48 q 1.8599999999999999,4.34 -4.34,6.2 h-16.74z" fill="#3a332e" stroke="#3d352f" stroke-width="0.806"/><path d="M983.1,690.74 q 10.54,-1.24 17.36,2.48 q 1.8599999999999999,4.34 -4.34,6.2 h-17.36z" fill="#3a332e" stroke="#3d352f" stroke-width="0.806"/><path d="M953.96,582.86 C945.9,601.46 946.52,616.96 952.1,631.22 L959.54,631.84 C956.44,616.34 958.3,599.6 961.4,585.96 Z" fill="#d7e0df" stroke="#3d352f" stroke-width="0.992"/><ellipse cx="953.34" cy="632.46" rx="3.1" ry="4.34" fill="#d4aa8e" stroke="#3d352f" stroke-width="0.62"/>
        <path d="M1006.04,582.86 C1014.1,600.84 1014.1,617.58 1009.14,630.6 L1001.7,632.46 C1004.18,615.72 1001.7,599.6 998.6,585.96 Z" fill="#d7e0df" stroke="#3d352f" stroke-width="0.992"/><ellipse cx="1009.14" cy="630.6" rx="3.1" ry="4.34" fill="#d4aa8e" stroke="#3d352f" stroke-width="0.62"/><path d="M953.34,579.76 Q980,574.8 1006.66,579.76 L999.22,631.84 Q980,636.8000000000001 960.78,631.84 Z" fill="#d7e0df" stroke="#3d352f" stroke-width="1.24"/>
    <path d="M970.7,579.14 L980,592.16 L989.3,579.14" fill="#eee9df" stroke="#746c62" stroke-width="0.682"/><path d="M980,592.16 V626.88" stroke="#7d8581" stroke-width="0.744"/><circle cx="980" cy="602.7" r="0.9299999999999999" fill="#6f7773"/><circle cx="980" cy="614.48" r="0.9299999999999999" fill="#6f7773"/>
    <path d="M956.44,597.12 q11.16,3.1 22.32,1 M981.86,598.36 q11.16,2.48 21.08,-2" fill="none" stroke="#9daaa7" stroke-width="0.62" opacity=".65"/><path d="M967.6,626.88 q4.96,-6.82 9.3,0 M984.34,628.12 q4.96,-5.58 8.68,0" fill="none" stroke="#75817e" stroke-width="0.558" opacity=".55"/><path d="M975.04,567.98 L975.04,577.9 Q980,582.86 984.96,577.9 L984.96,567.98Z" fill="#d4aa8e" stroke="#3d352f" stroke-width="0.62"/><path d="M 969.7328,549.8760000000001 Q 965.74,570.4104000000001 971.444,582.9592 L 978.2888,573.2624000000001 L 982.852,573.2624000000001 L 990.2672,582.9592 Q 994.8304,569.84 990.2672,549.8760000000001 Z" fill="#49352a" stroke="#3d352f" stroke-width="0.8556"/>
    <ellipse cx="969.7328" cy="556.1504" rx="2.05344" ry="3.1372" fill="#d4aa8e" stroke="#3d352f" stroke-width="0.5704"/>
    <ellipse cx="990.2672" cy="556.1504" rx="2.05344" ry="3.1372" fill="#d4aa8e" stroke="#3d352f" stroke-width="0.5704"/>
    <path d="M 980,542.4608000000001 C 972.5848,542.4608000000001 969.7328,548.7352000000001 969.7328,556.7208 C 969.7328,564.1360000000001 974.8664,569.2696000000001 980,569.84 C 985.704,569.2696000000001 990.2672,563.5656 990.2672,556.1504 C 990.2672,548.7352000000001 987.4152,542.4608000000001 980,542.4608000000001 Z" fill="url(#skinShade)" stroke="#3d352f" stroke-width="0.8556"/>
    <path d="M 969.7328,551.5872 Q 972.5848,539.6088000000001 981.1408,540.7496 Q 989.6968,540.7496 990.8376,551.5872 Q 984.5632,548.1648 980.5704,549.3056 Q 975.4368,547.024 969.7328,551.5872 Z" fill="#49352a" stroke="#3d352f" stroke-width="0.8556"/>
    <path d="M 973.7256,553.2984 q 2.2816,-1.1408 4.5632,0 M 981.7112,553.2984 q 2.2816,-1.1408 4.5632,0" fill="none" stroke="#3d352f" stroke-width="0.6274400000000001"/>
    <ellipse cx="976.0072" cy="556.1504" rx="0.8556" ry="1.02672" fill="#3d352f"/><ellipse cx="983.9928" cy="556.1504" rx="0.8556" ry="1.02672" fill="#3d352f"/>
    <path d="M 980,556.7208 q -0.8556,2.8520000000000003 0.8556,3.9928" fill="none" stroke="#806453" stroke-width="0.51336"/>
    <path d="M 977.148,564.1360000000001 Q 980,565.8472 983.4224,564.1360000000001" fill="none" stroke="#855f57" stroke-width="0.6274400000000001" stroke-linecap="round"/>
    </g><ellipse cx="800" cy="615" rx="78" ry="30" fill="#b7b3aa" stroke="#65615b" stroke-width="3"/><ellipse cx="760" cy="600" rx="11" ry="8" fill="#d0a055" stroke="#7f6240" stroke-width="1.3"/><ellipse cx="778" cy="600" rx="11" ry="8" fill="#d0a055" stroke="#7f6240" stroke-width="1.3"/><ellipse cx="796" cy="600" rx="11" ry="8" fill="#d0a055" stroke="#7f6240" stroke-width="1.3"/><ellipse cx="814" cy="600" rx="11" ry="8" fill="#d0a055" stroke="#7f6240" stroke-width="1.3"/><ellipse cx="832" cy="600" rx="11" ry="8" fill="#d0a055" stroke="#7f6240" stroke-width="1.3"/><ellipse cx="760" cy="613" rx="11" ry="8" fill="#d0a055" stroke="#7f6240" stroke-width="1.3"/><ellipse cx="778" cy="613" rx="11" ry="8" fill="#d0a055" stroke="#7f6240" stroke-width="1.3"/><ellipse cx="796" cy="613" rx="11" ry="8" fill="#d0a055" stroke="#7f6240" stroke-width="1.3"/><ellipse cx="814" cy="613" rx="11" ry="8" fill="#d0a055" stroke="#7f6240" stroke-width="1.3"/><ellipse cx="832" cy="613" rx="11" ry="8" fill="#d0a055" stroke="#7f6240" stroke-width="1.3"/><ellipse cx="760" cy="626" rx="11" ry="8" fill="#d0a055" stroke="#7f6240" stroke-width="1.3"/><ellipse cx="778" cy="626" rx="11" ry="8" fill="#d0a055" stroke="#7f6240" stroke-width="1.3"/><ellipse cx="796" cy="626" rx="11" ry="8" fill="#d0a055" stroke="#7f6240" stroke-width="1.3"/><ellipse cx="814" cy="626" rx="11" ry="8" fill="#d0a055" stroke="#7f6240" stroke-width="1.3"/><ellipse cx="832" cy="626" rx="11" ry="8" fill="#d0a055" stroke="#7f6240" stroke-width="1.3"/><g><ellipse cx="170" cy="498.1" rx="13.68" ry="2.66" fill="#2d2925" opacity=".13"/><path d="M158.98,455.15999999999997 Q160.5,472.26 161.64,491.64 L168.86,491.64 Q168.48,471.88 168.86,455.15999999999997 Z" fill="#44515a" stroke="#3d352f" stroke-width="0.646"/>
        <path d="M171.14,455.15999999999997 Q171.52,471.88 172.66,491.64 L180.26,491.64 Q180.26,471.5 181.02,455.15999999999997 Z" fill="#44515a" stroke="#3d352f" stroke-width="0.646"/>
        <path d="M159.74,490.88 q 6.46,-0.76 10.26,1.52 q 1.1400000000000001,2.66 -2.66,3.8 h-10.26z" fill="#3a332e" stroke="#3d352f" stroke-width="0.49400000000000005"/><path d="M171.9,491.26 q 6.46,-0.76 10.64,1.52 q 1.1400000000000001,2.66 -2.66,3.8 h-10.64z" fill="#3a332e" stroke="#3d352f" stroke-width="0.49400000000000005"/><path d="M154.04,425.14 C149.1,436.54 149.48,446.04 152.9,454.78 L157.46,455.15999999999997 C155.56,445.66 156.7,435.40000000000003 158.6,427.04 Z" fill="#d7e0df" stroke="#3d352f" stroke-width="0.6080000000000001"/><ellipse cx="153.66" cy="455.53999999999996" rx="1.9" ry="2.66" fill="#d4aa8e" stroke="#3d352f" stroke-width="0.38"/>
        <path d="M185.96,425.14 C190.9,436.16 190.9,446.42 187.86,454.4 L183.3,455.53999999999996 C184.82,445.28000000000003 183.3,435.40000000000003 181.4,427.04 Z" fill="#d7e0df" stroke="#3d352f" stroke-width="0.6080000000000001"/><ellipse cx="187.86" cy="454.4" rx="1.9" ry="2.66" fill="#d4aa8e" stroke="#3d352f" stroke-width="0.38"/><path d="M153.66,423.24 Q170,420.2 186.34,423.24 L181.78,455.15999999999997 Q170,458.2 158.22,455.15999999999997 Z" fill="#d7e0df" stroke="#3d352f" stroke-width="0.76"/>
    <path d="M164.3,422.86 L170,430.84000000000003 L175.7,422.86" fill="#eee9df" stroke="#746c62" stroke-width="0.41800000000000004"/><path d="M170,430.84000000000003 V452.11999999999995" stroke="#7d8581" stroke-width="0.45599999999999996"/><circle cx="170" cy="437.3" r="0.5700000000000001" fill="#6f7773"/><circle cx="170" cy="444.52" r="0.5700000000000001" fill="#6f7773"/>
    <path d="M155.56,433.88 q6.84,1.9 13.68,1 M171.14,434.64 q6.84,1.52 12.92,-2" fill="none" stroke="#9daaa7" stroke-width="0.38" opacity=".65"/><path d="M162.4,452.11999999999995 q3.04,-4.18 5.7,0 M172.66,452.88 q3.04,-3.42 5.32,0" fill="none" stroke="#75817e" stroke-width="0.342" opacity=".55"/><path d="M166.96,416.02000000000004 L166.96,422.1 Q170,425.14 173.04,422.1 L173.04,416.02000000000004Z" fill="#d4aa8e" stroke="#3d352f" stroke-width="0.38"/>
    <ellipse cx="163.7072" cy="408.7696" rx="1.2585600000000001" ry="1.9228" fill="#d4aa8e" stroke="#3d352f" stroke-width="0.3496"/>
    <ellipse cx="176.2928" cy="408.7696" rx="1.2585600000000001" ry="1.9228" fill="#d4aa8e" stroke="#3d352f" stroke-width="0.3496"/>
    <path d="M 170,400.3792 C 165.4552,400.3792 163.7072,404.2248 163.7072,409.11920000000003 C 163.7072,413.66400000000004 166.8536,416.8104 170,417.16 C 173.496,416.8104 176.2928,413.31440000000003 176.2928,408.7696 C 176.2928,404.2248 174.5448,400.3792 170,400.3792 Z" fill="url(#skinShade)" stroke="#3d352f" stroke-width="0.5244"/>
    <path d="M 163.7072,405.9728 Q 165.4552,398.63120000000004 170.6992,399.3304 Q 175.9432,399.3304 176.6424,405.9728 Q 172.7968,403.8752 170.3496,404.5744 Q 167.2032,403.176 163.7072,405.9728 Z" fill="#30261f" stroke="#3d352f" stroke-width="0.5244"/>
    <path d="M 166.1544,407.02160000000003 q 1.3984,-0.6992 2.7968,0 M 171.0488,407.02160000000003 q 1.3984,-0.6992 2.7968,0" fill="none" stroke="#3d352f" stroke-width="0.38456000000000007"/>
    <ellipse cx="167.5528" cy="408.7696" rx="0.5244" ry="0.6292800000000001" fill="#3d352f"/><ellipse cx="172.4472" cy="408.7696" rx="0.5244" ry="0.6292800000000001" fill="#3d352f"/>
    <path d="M 170,409.11920000000003 q -0.5244,1.7480000000000002 0.5244,2.4472" fill="none" stroke="#806453" stroke-width="0.31464000000000003"/>
    <path d="M 168.252,413.66400000000004 Q 170,414.0136 172.0976,413.66400000000004" fill="none" stroke="#855f57" stroke-width="0.38456000000000007" stroke-linecap="round"/>
    </g><g><ellipse cx="380" cy="498.1" rx="13.68" ry="2.66" fill="#2d2925" opacity=".13"/><path d="M368.98,455.15999999999997 Q370.5,472.26 371.64,491.64 L378.86,491.64 Q378.48,471.88 378.86,455.15999999999997 Z" fill="#44515a" stroke="#3d352f" stroke-width="0.646"/>
        <path d="M381.14,455.15999999999997 Q381.52,471.88 382.66,491.64 L390.26,491.64 Q390.26,471.5 391.02,455.15999999999997 Z" fill="#44515a" stroke="#3d352f" stroke-width="0.646"/>
        <path d="M369.74,490.88 q 6.46,-0.76 10.26,1.52 q 1.1400000000000001,2.66 -2.66,3.8 h-10.26z" fill="#3a332e" stroke="#3d352f" stroke-width="0.49400000000000005"/><path d="M381.9,491.26 q 6.46,-0.76 10.64,1.52 q 1.1400000000000001,2.66 -2.66,3.8 h-10.64z" fill="#3a332e" stroke="#3d352f" stroke-width="0.49400000000000005"/><path d="M364.04,425.14 C359.1,436.54 359.48,446.04 362.9,454.78 L367.46,455.15999999999997 C365.56,445.66 366.7,435.40000000000003 368.6,427.04 Z" fill="#d7e0df" stroke="#3d352f" stroke-width="0.6080000000000001"/><ellipse cx="363.66" cy="455.53999999999996" rx="1.9" ry="2.66" fill="#d4aa8e" stroke="#3d352f" stroke-width="0.38"/>
        <path d="M395.96,425.14 C400.9,436.16 400.9,446.42 397.86,454.4 L393.3,455.53999999999996 C394.82,445.28000000000003 393.3,435.40000000000003 391.4,427.04 Z" fill="#d7e0df" stroke="#3d352f" stroke-width="0.6080000000000001"/><ellipse cx="397.86" cy="454.4" rx="1.9" ry="2.66" fill="#d4aa8e" stroke="#3d352f" stroke-width="0.38"/><path d="M363.66,423.24 Q380,420.2 396.34,423.24 L391.78,455.15999999999997 Q380,458.2 368.22,455.15999999999997 Z" fill="#d7e0df" stroke="#3d352f" stroke-width="0.76"/>
    <path d="M374.3,422.86 L380,430.84000000000003 L385.7,422.86" fill="#eee9df" stroke="#746c62" stroke-width="0.41800000000000004"/><path d="M380,430.84000000000003 V452.11999999999995" stroke="#7d8581" stroke-width="0.45599999999999996"/><circle cx="380" cy="437.3" r="0.5700000000000001" fill="#6f7773"/><circle cx="380" cy="444.52" r="0.5700000000000001" fill="#6f7773"/>
    <path d="M365.56,433.88 q6.84,1.9 13.68,1 M381.14,434.64 q6.84,1.52 12.92,-2" fill="none" stroke="#9daaa7" stroke-width="0.38" opacity=".65"/><path d="M372.4,452.11999999999995 q3.04,-4.18 5.7,0 M382.66,452.88 q3.04,-3.42 5.32,0" fill="none" stroke="#75817e" stroke-width="0.342" opacity=".55"/><path d="M376.96,416.02000000000004 L376.96,422.1 Q380,425.14 383.04,422.1 L383.04,416.02000000000004Z" fill="#d4aa8e" stroke="#3d352f" stroke-width="0.38"/><path d="M 373.7072,404.92400000000004 Q 371.26,417.50960000000003 374.756,425.2008 L 378.9512,419.2576 L 381.748,419.2576 L 386.2928,425.2008 Q 389.0896,417.16 386.2928,404.92400000000004 Z" fill="#49352a" stroke="#3d352f" stroke-width="0.5244"/>
    <ellipse cx="373.7072" cy="408.7696" rx="1.2585600000000001" ry="1.9228" fill="#d4aa8e" stroke="#3d352f" stroke-width="0.3496"/>
    <ellipse cx="386.2928" cy="408.7696" rx="1.2585600000000001" ry="1.9228" fill="#d4aa8e" stroke="#3d352f" stroke-width="0.3496"/>
    <path d="M 380,400.3792 C 375.4552,400.3792 373.7072,404.2248 373.7072,409.11920000000003 C 373.7072,413.66400000000004 376.8536,416.8104 380,417.16 C 383.496,416.8104 386.2928,413.31440000000003 386.2928,408.7696 C 386.2928,404.2248 384.5448,400.3792 380,400.3792 Z" fill="url(#skinShade)" stroke="#3d352f" stroke-width="0.5244"/>
    <path d="M 373.7072,405.9728 Q 375.4552,398.63120000000004 380.6992,399.3304 Q 385.9432,399.3304 386.6424,405.9728 Q 382.7968,403.8752 380.3496,404.5744 Q 377.2032,403.176 373.7072,405.9728 Z" fill="#49352a" stroke="#3d352f" stroke-width="0.5244"/>
    <path d="M 376.1544,407.02160000000003 q 1.3984,-0.6992 2.7968,0 M 381.0488,407.02160000000003 q 1.3984,-0.6992 2.7968,0" fill="none" stroke="#3d352f" stroke-width="0.38456000000000007"/>
    <ellipse cx="377.5528" cy="408.7696" rx="0.5244" ry="0.6292800000000001" fill="#3d352f"/><ellipse cx="382.4472" cy="408.7696" rx="0.5244" ry="0.6292800000000001" fill="#3d352f"/>
    <path d="M 380,409.11920000000003 q -0.5244,1.7480000000000002 0.5244,2.4472" fill="none" stroke="#806453" stroke-width="0.31464000000000003"/>
    <path d="M 378.252,413.66400000000004 Q 380,414.0136 382.0976,413.66400000000004" fill="none" stroke="#855f57" stroke-width="0.38456000000000007" stroke-linecap="round"/>
    </g><g><ellipse cx="1160" cy="498.1" rx="13.68" ry="2.66" fill="#2d2925" opacity=".13"/><path d="M1148.98,455.15999999999997 Q1150.5,472.26 1151.64,491.64 L1158.86,491.64 Q1158.48,471.88 1158.86,455.15999999999997 Z" fill="#44515a" stroke="#3d352f" stroke-width="0.646"/>
        <path d="M1161.14,455.15999999999997 Q1161.52,471.88 1162.66,491.64 L1170.26,491.64 Q1170.26,471.5 1171.02,455.15999999999997 Z" fill="#44515a" stroke="#3d352f" stroke-width="0.646"/>
        <path d="M1149.74,490.88 q 6.46,-0.76 10.26,1.52 q 1.1400000000000001,2.66 -2.66,3.8 h-10.26z" fill="#3a332e" stroke="#3d352f" stroke-width="0.49400000000000005"/><path d="M1161.9,491.26 q 6.46,-0.76 10.64,1.52 q 1.1400000000000001,2.66 -2.66,3.8 h-10.64z" fill="#3a332e" stroke="#3d352f" stroke-width="0.49400000000000005"/><path d="M1144.04,425.14 C1139.1,436.54 1139.48,446.04 1142.9,454.78 L1147.46,455.15999999999997 C1145.56,445.66 1146.7,435.40000000000003 1148.6,427.04 Z" fill="#d7e0df" stroke="#3d352f" stroke-width="0.6080000000000001"/><ellipse cx="1143.66" cy="455.53999999999996" rx="1.9" ry="2.66" fill="#d4aa8e" stroke="#3d352f" stroke-width="0.38"/>
        <path d="M1175.96,425.14 C1180.9,436.16 1180.9,446.42 1177.86,454.4 L1173.3,455.53999999999996 C1174.82,445.28000000000003 1173.3,435.40000000000003 1171.4,427.04 Z" fill="#d7e0df" stroke="#3d352f" stroke-width="0.6080000000000001"/><ellipse cx="1177.86" cy="454.4" rx="1.9" ry="2.66" fill="#d4aa8e" stroke="#3d352f" stroke-width="0.38"/><path d="M1143.66,423.24 Q1160,420.2 1176.34,423.24 L1171.78,455.15999999999997 Q1160,458.2 1148.22,455.15999999999997 Z" fill="#d7e0df" stroke="#3d352f" stroke-width="0.76"/>
    <path d="M1154.3,422.86 L1160,430.84000000000003 L1165.7,422.86" fill="#eee9df" stroke="#746c62" stroke-width="0.41800000000000004"/><path d="M1160,430.84000000000003 V452.11999999999995" stroke="#7d8581" stroke-width="0.45599999999999996"/><circle cx="1160" cy="437.3" r="0.5700000000000001" fill="#6f7773"/><circle cx="1160" cy="444.52" r="0.5700000000000001" fill="#6f7773"/>
    <path d="M1145.56,433.88 q6.84,1.9 13.68,1 M1161.14,434.64 q6.84,1.52 12.92,-2" fill="none" stroke="#9daaa7" stroke-width="0.38" opacity=".65"/><path d="M1152.4,452.11999999999995 q3.04,-4.18 5.7,0 M1162.66,452.88 q3.04,-3.42 5.32,0" fill="none" stroke="#75817e" stroke-width="0.342" opacity=".55"/><path d="M1156.96,416.02000000000004 L1156.96,422.1 Q1160,425.14 1163.04,422.1 L1163.04,416.02000000000004Z" fill="#d4aa8e" stroke="#3d352f" stroke-width="0.38"/>
    <ellipse cx="1153.7072" cy="408.7696" rx="1.2585600000000001" ry="1.9228" fill="#d4aa8e" stroke="#3d352f" stroke-width="0.3496"/>
    <ellipse cx="1166.2928" cy="408.7696" rx="1.2585600000000001" ry="1.9228" fill="#d4aa8e" stroke="#3d352f" stroke-width="0.3496"/>
    <path d="M 1160,400.3792 C 1155.4552,400.3792 1153.7072,404.2248 1153.7072,409.11920000000003 C 1153.7072,413.66400000000004 1156.8536,416.8104 1160,417.16 C 1163.496,416.8104 1166.2928,413.31440000000003 1166.2928,408.7696 C 1166.2928,404.2248 1164.5448,400.3792 1160,400.3792 Z" fill="url(#skinShade)" stroke="#3d352f" stroke-width="0.5244"/>
    <path d="M 1153.7072,405.9728 Q 1155.4552,398.63120000000004 1160.6992,399.3304 Q 1165.9432,399.3304 1166.6424,405.9728 Q 1162.7968,403.8752 1160.3496,404.5744 Q 1157.2032,403.176 1153.7072,405.9728 Z" fill="#30261f" stroke="#3d352f" stroke-width="0.5244"/>
    <path d="M 1156.1544,407.02160000000003 q 1.3984,-0.6992 2.7968,0 M 1161.0488,407.02160000000003 q 1.3984,-0.6992 2.7968,0" fill="none" stroke="#3d352f" stroke-width="0.38456000000000007"/>
    <ellipse cx="1157.5528" cy="408.7696" rx="0.5244" ry="0.6292800000000001" fill="#3d352f"/><ellipse cx="1162.4472" cy="408.7696" rx="0.5244" ry="0.6292800000000001" fill="#3d352f"/>
    <path d="M 1160,409.11920000000003 q -0.5244,1.7480000000000002 0.5244,2.4472" fill="none" stroke="#806453" stroke-width="0.31464000000000003"/>
    <path d="M 1158.252,413.66400000000004 Q 1160,414.0136 1162.0976,413.66400000000004" fill="none" stroke="#855f57" stroke-width="0.38456000000000007" stroke-linecap="round"/>
    </g><g><ellipse cx="1390" cy="498.1" rx="13.68" ry="2.66" fill="#2d2925" opacity=".13"/><path d="M1378.98,455.15999999999997 Q1380.5,472.26 1381.64,491.64 L1388.86,491.64 Q1388.48,471.88 1388.86,455.15999999999997 Z" fill="#44515a" stroke="#3d352f" stroke-width="0.646"/>
        <path d="M1391.14,455.15999999999997 Q1391.52,471.88 1392.66,491.64 L1400.26,491.64 Q1400.26,471.5 1401.02,455.15999999999997 Z" fill="#44515a" stroke="#3d352f" stroke-width="0.646"/>
        <path d="M1379.74,490.88 q 6.46,-0.76 10.26,1.52 q 1.1400000000000001,2.66 -2.66,3.8 h-10.26z" fill="#3a332e" stroke="#3d352f" stroke-width="0.49400000000000005"/><path d="M1391.9,491.26 q 6.46,-0.76 10.64,1.52 q 1.1400000000000001,2.66 -2.66,3.8 h-10.64z" fill="#3a332e" stroke="#3d352f" stroke-width="0.49400000000000005"/><path d="M1374.04,425.14 C1369.1,436.54 1369.48,446.04 1372.9,454.78 L1377.46,455.15999999999997 C1375.56,445.66 1376.7,435.40000000000003 1378.6,427.04 Z" fill="#d7e0df" stroke="#3d352f" stroke-width="0.6080000000000001"/><ellipse cx="1373.66" cy="455.53999999999996" rx="1.9" ry="2.66" fill="#d4aa8e" stroke="#3d352f" stroke-width="0.38"/>
        <path d="M1405.96,425.14 C1410.9,436.16 1410.9,446.42 1407.86,454.4 L1403.3,455.53999999999996 C1404.82,445.28000000000003 1403.3,435.40000000000003 1401.4,427.04 Z" fill="#d7e0df" stroke="#3d352f" stroke-width="0.6080000000000001"/><ellipse cx="1407.86" cy="454.4" rx="1.9" ry="2.66" fill="#d4aa8e" stroke="#3d352f" stroke-width="0.38"/><path d="M1373.66,423.24 Q1390,420.2 1406.34,423.24 L1401.78,455.15999999999997 Q1390,458.2 1378.22,455.15999999999997 Z" fill="#d7e0df" stroke="#3d352f" stroke-width="0.76"/>
    <path d="M1384.3,422.86 L1390,430.84000000000003 L1395.7,422.86" fill="#eee9df" stroke="#746c62" stroke-width="0.41800000000000004"/><path d="M1390,430.84000000000003 V452.11999999999995" stroke="#7d8581" stroke-width="0.45599999999999996"/><circle cx="1390" cy="437.3" r="0.5700000000000001" fill="#6f7773"/><circle cx="1390" cy="444.52" r="0.5700000000000001" fill="#6f7773"/>
    <path d="M1375.56,433.88 q6.84,1.9 13.68,1 M1391.14,434.64 q6.84,1.52 12.92,-2" fill="none" stroke="#9daaa7" stroke-width="0.38" opacity=".65"/><path d="M1382.4,452.11999999999995 q3.04,-4.18 5.7,0 M1392.66,452.88 q3.04,-3.42 5.32,0" fill="none" stroke="#75817e" stroke-width="0.342" opacity=".55"/><path d="M1386.96,416.02000000000004 L1386.96,422.1 Q1390,425.14 1393.04,422.1 L1393.04,416.02000000000004Z" fill="#d4aa8e" stroke="#3d352f" stroke-width="0.38"/><path d="M 1383.7072,404.92400000000004 Q 1381.26,417.50960000000003 1384.756,425.2008 L 1388.9512,419.2576 L 1391.748,419.2576 L 1396.2928,425.2008 Q 1399.0896,417.16 1396.2928,404.92400000000004 Z" fill="#49352a" stroke="#3d352f" stroke-width="0.5244"/>
    <ellipse cx="1383.7072" cy="408.7696" rx="1.2585600000000001" ry="1.9228" fill="#d4aa8e" stroke="#3d352f" stroke-width="0.3496"/>
    <ellipse cx="1396.2928" cy="408.7696" rx="1.2585600000000001" ry="1.9228" fill="#d4aa8e" stroke="#3d352f" stroke-width="0.3496"/>
    <path d="M 1390,400.3792 C 1385.4552,400.3792 1383.7072,404.2248 1383.7072,409.11920000000003 C 1383.7072,413.66400000000004 1386.8536,416.8104 1390,417.16 C 1393.496,416.8104 1396.2928,413.31440000000003 1396.2928,408.7696 C 1396.2928,404.2248 1394.5448,400.3792 1390,400.3792 Z" fill="url(#skinShade)" stroke="#3d352f" stroke-width="0.5244"/>
    <path d="M 1383.7072,405.9728 Q 1385.4552,398.63120000000004 1390.6992,399.3304 Q 1395.9432,399.3304 1396.6424,405.9728 Q 1392.7968,403.8752 1390.3496,404.5744 Q 1387.2032,403.176 1383.7072,405.9728 Z" fill="#49352a" stroke="#3d352f" stroke-width="0.5244"/>
    <path d="M 1386.1544,407.02160000000003 q 1.3984,-0.6992 2.7968,0 M 1391.0488,407.02160000000003 q 1.3984,-0.6992 2.7968,0" fill="none" stroke="#3d352f" stroke-width="0.38456000000000007"/>
    <ellipse cx="1387.5528" cy="408.7696" rx="0.5244" ry="0.6292800000000001" fill="#3d352f"/><ellipse cx="1392.4472" cy="408.7696" rx="0.5244" ry="0.6292800000000001" fill="#3d352f"/>
    <path d="M 1390,409.11920000000003 q -0.5244,1.7480000000000002 0.5244,2.4472" fill="none" stroke="#806453" stroke-width="0.31464000000000003"/>
    <path d="M 1388.252,413.66400000000004 Q 1390,414.0136 1392.0976,413.66400000000004" fill="none" stroke="#855f57" stroke-width="0.38456000000000007" stroke-linecap="round"/>
    </g></g><rect width="1600" height="900" fill="url(#wash)" pointer-events="none"/><rect width="1600" height="900" fill="transparent" filter="url(#paper)" opacity=".65" pointer-events="none"/></svg>