<svg xmlns="http://www.w3.org/2000/svg" viewBox="0 0 1600 900" width="1600" height="900"><defs>
    <filter id="paper" x="-10%" y="-10%" width="120%" height="120%"><feTurbulence type="fractalNoise" baseFrequency="0.55" numOctaves="3" seed="44" result="n"/><feColorMatrix in="n" type="saturate" values="0" result="g"/><feComponentTransfer in="g" result="a"><feFuncA type="table" tableValues="0 .12"/></feComponentTransfer><feBlend in="SourceGraphic" in2="a" mode="multiply"/></filter>
    <filter id="rough" x="-10%" y="-10%" width="120%" height="120%"><feTurbulence type="fractalNoise" baseFrequency="0.012" numOctaves="2" seed="47" result="noise"/><feDisplacementMap in="SourceGraphic" in2="noise" scale="1.4" xChannelSelector="R" yChannelSelector="G"/></filter>
    <filter id="soft"><feGaussianBlur stdDeviation="7"/></filter>
    <linearGradient id="wash" x1="0" y1="0" x2="1" y2="1"><stop offset="0" stop-color="#f0d7ad" stop-opacity=".32"/><stop offset=".55" stop-color="#ffffff" stop-opacity="0"/><stop offset="1" stop-color="#53605d" stop-opacity=".16"/></linearGradient>
    <linearGradient id="floorWash" x1="0" y1="0" x2="0" y2="1"><stop offset="0" stop-color="#ad9577"/><stop offset="1" stop-color="#80694f"/></linearGradient>
    <linearGradient id="windowGlow" x1="0" y1="0" x2="1" y2="1"><stop offset="0" stop-color="#dbe7df"/><stop offset="1" stop-color="#90aaa8"/></linearGradient>
    <radialGradient id="skinShade"><stop offset="0" stop-color="#e0b89b"/><stop offset="1" stop-color="#c28f74"/></radialGradient>
    </defs><rect width="1600" height="900" fill="#d9d1bf"/><g filter="url(#rough)"><rect width="1600" height="900" fill="#d9d1bf"/><rect y="590" width="1600" height="310" fill="#9d866b"/><rect x="88.0" y="78" width="114.0" height="284" fill="url(#windowGlow)" stroke="#62584d" stroke-width="7"/><path d="M 110.0,95 L 185.0,340" stroke="#fff2c9" stroke-width="22" opacity=".22"/><rect x="218.0" y="78" width="114.0" height="284" fill="url(#windowGlow)" stroke="#62584d" stroke-width="7"/><path d="M 240.0,95 L 315.0,340" stroke="#fff2c9" stroke-width="22" opacity=".22"/><rect x="348.0" y="78" width="114.0" height="284" fill="url(#windowGlow)" stroke="#62584d" stroke-width="7"/><path d="M 370.0,95 L 445.0,340" stroke="#fff2c9" stroke-width="22" opacity=".22"/><rect x="478.0" y="78" width="114.0" height="284" fill="url(#windowGlow)" stroke="#62584d" stroke-width="7"/><path d="M 500.0,95 L 575.0,340" stroke="#fff2c9" stroke-width="22" opacity=".22"/><rect x="720" y="190" width="730" height="75" fill="#735b44" stroke="#4c3d31" stroke-width="7"/><rect x="760" y="265" width="95" height="115" fill="#8a6e53" stroke="#554435" stroke-width="4"/><g><path d="M 808,309.0 Q 802.25,273.0 808,265.7" stroke="#4e765f" stroke-width="4.6" fill="none"/><path d="M 805.7,289.0 q -28.749999999999996,-11.5 -39.099999999999994,9.2 q 25.299999999999997,10.35 39.099999999999994,-1.15" fill="#63866d" stroke="#46634f" stroke-width="1.7249999999999999"/><path d="M 809.15,278.6 q 28.749999999999996,-12.649999999999999 37.949999999999996,8.049999999999999 q -24.15,11.5 -37.949999999999996,1.15" fill="#6e8d75" stroke="#46634f" stroke-width="1.7249999999999999"/><ellipse cx="808.0" cy="233.5" rx="17.25" ry="27.599999999999998" transform="rotate(180 808 245)" fill="#8582a4" stroke="#504d68" stroke-width="2.07" opacity=".96"/><ellipse cx="822.2182949186125" cy="241.4463045646881" rx="17.25" ry="27.599999999999998" transform="rotate(252 808 245)" fill="#8582a4" stroke="#504d68" stroke-width="2.07" opacity=".96"/><ellipse cx="816.7873895217725" cy="254.3036954353119" rx="17.25" ry="27.599999999999998" transform="rotate(-36 808 245)" fill="#8582a4" stroke="#504d68" stroke-width="2.07" opacity=".96"/><ellipse cx="799.2126104782275" cy="254.3036954353119" rx="17.25" ry="27.599999999999998" transform="rotate(36 808 245)" fill="#8582a4" stroke="#504d68" stroke-width="2.07" opacity=".96"/><ellipse cx="793.7817050813875" cy="241.44630456468812" rx="17.25" ry="27.599999999999998" transform="rotate(108 808 245)" fill="#8582a4" stroke="#504d68" stroke-width="2.07" opacity=".96"/><circle cx="808" cy="245" r="8.049999999999999" fill="#d2c18b" stroke="#625b4c" stroke-width="1.38"/></g><rect x="900" y="265" width="95" height="115" fill="#8a6e53" stroke="#554435" stroke-width="4"/><path d="M948 280 v-75 M948 235 q-35 -20 -45 8 M948 220 q35 -25 48 -6" fill="none" stroke="#55745e" stroke-width="8"/><rect x="1040" y="265" width="95" height="115" fill="#8a6e53" stroke="#554435" stroke-width="4"/><g><path d="M 1088,309.0 Q 1082.25,273.0 1088,265.7" stroke="#4e765f" stroke-width="4.6" fill="none"/><path d="M 1085.7,289.0 q -28.749999999999996,-11.5 -39.099999999999994,9.2 q 25.299999999999997,10.35 39.099999999999994,-1.15" fill="#63866d" stroke="#46634f" stroke-width="1.7249999999999999"/><path d="M 1089.15,278.6 q 28.749999999999996,-12.649999999999999 37.949999999999996,8.049999999999999 q -24.15,11.5 -37.949999999999996,1.15" fill="#6e8d75" stroke="#46634f" stroke-width="1.7249999999999999"/><ellipse cx="1088.0" cy="233.5" rx="17.25" ry="27.599999999999998" transform="rotate(180 1088 245)" fill="#8582a4" stroke="#504d68" stroke-width="2.07" opacity=".96"/><ellipse cx="1102.2182949186126" cy="241.4463045646881" rx="17.25" ry="27.599999999999998" transform="rotate(252 1088 245)" fill="#8582a4" stroke="#504d68" stroke-width="2.07" opacity=".96"/><ellipse cx="1096.7873895217724" cy="254.3036954353119" rx="17.25" ry="27.599999999999998" transform="rotate(-36 1088 245)" fill="#8582a4" stroke="#504d68" stroke-width="2.07" opacity=".96"/><ellipse cx="1079.2126104782276" cy="254.3036954353119" rx="17.25" ry="27.599999999999998" transform="rotate(36 1088 245)" fill="#8582a4" stroke="#504d68" stroke-width="2.07" opacity=".96"/><ellipse cx="1073.7817050813874" cy="241.44630456468812" rx="17.25" ry="27.599999999999998" transform="rotate(108 1088 245)" fill="#8582a4" stroke="#504d68" stroke-width="2.07" opacity=".96"/><circle cx="1088" cy="245" r="8.049999999999999" fill="#d2c18b" stroke="#625b4c" stroke-width="1.38"/></g><rect x="1180" y="265" width="95" height="115" fill="#8a6e53" stroke="#554435" stroke-width="4"/><path d="M1228 280 v-75 M1228 235 q-35 -20 -45 8 M1228 220 q35 -25 48 -6" fill="none" stroke="#55745e" stroke-width="8"/><rect x="1320" y="265" width="95" height="115" fill="#8a6e53" stroke="#554435" stroke-width="4"/><g><path d="M 1368,309.0 Q 1362.25,273.0 1368,265.7" stroke="#4e765f" stroke-width="4.6" fill="none"/><path d="M 1365.7,289.0 q -28.749999999999996,-11.5 -39.099999999999994,9.2 q 25.299999999999997,10.35 39.099999999999994,-1.15" fill="#63866d" stroke="#46634f" stroke-width="1.7249999999999999"/><path d="M 1369.15,278.6 q 28.749999999999996,-12.649999999999999 37.949999999999996,8.049999999999999 q -24.15,11.5 -37.949999999999996,1.15" fill="#6e8d75" stroke="#46634f" stroke-width="1.7249999999999999"/><ellipse cx="1368.0" cy="233.5" rx="17.25" ry="27.599999999999998" transform="rotate(180 1368 245)" fill="#8582a4" stroke="#504d68" stroke-width="2.07" opacity=".96"/><ellipse cx="1382.2182949186126" cy="241.4463045646881" rx="17.25" ry="27.599999999999998" transform="rotate(252 1368 245)" fill="#8582a4" stroke="#504d68" stroke-width="2.07" opacity=".96"/><ellipse cx="1376.7873895217724" cy="254.3036954353119" rx="17.25" ry="27.599999999999998" transform="rotate(-36 1368 245)" fill="#8582a4" stroke="#504d68" stroke-width="2.07" opacity=".96"/><ellipse cx="1359.2126104782276" cy="254.3036954353119" rx="17.25" ry="27.599999999999998" transform="rotate(36 1368 245)" fill="#8582a4" stroke="#504d68" stroke-width="2.07" opacity=".96"/><ellipse cx="1353.7817050813874" cy="241.44630456468812" rx="17.25" ry="27.599999999999998" transform="rotate(108 1368 245)" fill="#8582a4" stroke="#504d68" stroke-width="2.07" opacity=".96"/><circle cx="1368" cy="245" r="8.049999999999999" fill="#d2c18b" stroke="#625b4c" stroke-width="1.38"/></g><g><ellipse cx="650" cy="809.6" rx="38.88" ry="7.5600000000000005" fill="#2d2925" opacity=".13"/><path d="M618.68,687.56 Q623.0,736.16 626.24,791.24 L646.76,791.24 Q645.68,735.08 646.76,687.56 Z" fill="#44515a" stroke="#3d352f" stroke-width="1.836"/>
        <path d="M653.24,687.56 Q654.32,735.08 657.56,791.24 L679.16,791.24 Q679.16,734.0 681.32,687.56 Z" fill="#44515a" stroke="#3d352f" stroke-width="1.836"/>
        <path d="M620.84,789.08 q 18.36,-2.16 29.160000000000004,4.32 q 3.24,7.5600000000000005 -7.5600000000000005,10.8 h-29.160000000000004z" fill="#3a332e" stroke="#3d352f" stroke-width="1.4040000000000001"/><path d="M655.4,790.16 q 18.36,-2.16 30.240000000000002,4.32 q 3.24,7.5600000000000005 -7.5600000000000005,10.8 h-30.240000000000002z" fill="#3a332e" stroke="#3d352f" stroke-width="1.4040000000000001"/><path d="M604.64,602.2399999999999 C590.6,634.6399999999999 591.68,661.6399999999999 601.4,686.4799999999999 L614.36,687.56 C608.96,660.56 612.2,631.3999999999999 617.6,607.6399999999999 Z" fill="#d7e0df" stroke="#3d352f" stroke-width="1.7280000000000002"/><ellipse cx="603.56" cy="688.64" rx="5.4" ry="7.5600000000000005" fill="#d4aa8e" stroke="#3d352f" stroke-width="1.08"/>
        <path d="M695.36,602.2399999999999 C709.4,633.56 709.4,662.7199999999999 700.76,685.4 L687.8,688.64 C692.12,659.4799999999999 687.8,631.3999999999999 682.4,607.6399999999999 Z" fill="#d7e0df" stroke="#3d352f" stroke-width="1.7280000000000002"/><ellipse cx="700.76" cy="685.4" rx="5.4" ry="7.5600000000000005" fill="#d4aa8e" stroke="#3d352f" stroke-width="1.08"/><path d="M603.56,596.8399999999999 Q650,588.1999999999999 696.44,596.8399999999999 L683.48,687.56 Q650,696.1999999999999 616.52,687.56 Z" fill="#d7e0df" stroke="#3d352f" stroke-width="2.16"/>
    <path d="M633.8,595.7599999999999 L650,618.4399999999999 L666.2,595.7599999999999" fill="#eee9df" stroke="#746c62" stroke-width="1.1880000000000002"/><path d="M650,618.4399999999999 V678.92" stroke="#7d8581" stroke-width="1.296"/><circle cx="650" cy="636.8" r="1.62" fill="#6f7773"/><circle cx="650" cy="657.3199999999999" r="1.62" fill="#6f7773"/>
    <path d="M608.96,627.0799999999999 q19.44,5.4 38.88,1 M653.24,629.2399999999999 q19.44,4.32 36.72,-2" fill="none" stroke="#9daaa7" stroke-width="1.08" opacity=".65"/><path d="M628.4,678.92 q8.64,-11.88 16.200000000000003,0 M657.56,681.0799999999999 q8.64,-9.72 15.120000000000001,0" fill="none" stroke="#75817e" stroke-width="0.9720000000000001" opacity=".55"/><path d="M641.36,576.32 L641.36,593.5999999999999 Q650,602.2399999999999 658.64,593.5999999999999 L658.64,576.32Z" fill="#d4aa8e" stroke="#3d352f" stroke-width="1.08"/>
    <ellipse cx="632.1152" cy="555.7136" rx="3.5769600000000006" ry="5.464800000000001" fill="#d4aa8e" stroke="#3d352f" stroke-width="0.9936000000000001"/>
    <ellipse cx="667.8848" cy="555.7136" rx="3.5769600000000006" ry="5.464800000000001" fill="#d4aa8e" stroke="#3d352f" stroke-width="0.9936000000000001"/>
    <path d="M 650,531.8672 C 637.0832,531.8672 632.1152,542.7968000000001 632.1152,556.7072000000001 C 632.1152,569.624 641.0576,578.5664 650,579.5600000000001 C 659.936,578.5664 667.8848,568.6304 667.8848,555.7136 C 667.8848,542.7968000000001 662.9168,531.8672 650,531.8672 Z" fill="url(#skinShade)" stroke="#3d352f" stroke-width="1.4904000000000002"/>
    <path d="M 632.1152,547.7648 Q 637.0832,526.8992000000001 651.9872,528.8864 Q 666.8912,528.8864 668.8784,547.7648 Q 657.9488,541.8032000000001 650.9936,543.7904 Q 642.0512,539.816 632.1152,547.7648 Z" fill="#30261f" stroke="#3d352f" stroke-width="1.4904000000000002"/>
    <path d="M 639.0704,550.7456000000001 q 3.9744000000000006,-1.9872000000000003 7.948800000000001,0 M 652.9808,550.7456000000001 q 3.9744000000000006,-1.9872000000000003 7.948800000000001,0" fill="none" stroke="#3d352f" stroke-width="1.0929600000000002"/>
    <ellipse cx="643.0448" cy="555.7136" rx="1.4904000000000002" ry="1.7884800000000003" fill="#3d352f"/><ellipse cx="656.9552" cy="555.7136" rx="1.4904000000000002" ry="1.7884800000000003" fill="#3d352f"/>
    <path d="M 650,556.7072000000001 q -1.4904000000000002,4.968000000000001 1.4904000000000002,6.955200000000001" fill="none" stroke="#806453" stroke-width="0.8942400000000001"/>
    <path d="M 645.032,569.624 Q 650,570.6176 655.9616,569.624" fill="none" stroke="#855f57" stroke-width="1.0929600000000002" stroke-linecap="round"/>
    </g><g><ellipse cx="930" cy="809.6" rx="38.88" ry="7.5600000000000005" fill="#2d2925" opacity=".13"/><path d="M898.68,687.56 Q903.0,736.16 906.24,791.24 L926.76,791.24 Q925.68,735.08 926.76,687.56 Z" fill="#44515a" stroke="#3d352f" stroke-width="1.836"/>
        <path d="M933.24,687.56 Q934.32,735.08 937.56,791.24 L959.16,791.24 Q959.16,734.0 961.32,687.56 Z" fill="#44515a" stroke="#3d352f" stroke-width="1.836"/>
        <path d="M900.84,789.08 q 18.36,-2.16 29.160000000000004,4.32 q 3.24,7.5600000000000005 -7.5600000000000005,10.8 h-29.160000000000004z" fill="#3a332e" stroke="#3d352f" stroke-width="1.4040000000000001"/><path d="M935.4,790.16 q 18.36,-2.16 30.240000000000002,4.32 q 3.24,7.5600000000000005 -7.5600000000000005,10.8 h-30.240000000000002z" fill="#3a332e" stroke="#3d352f" stroke-width="1.4040000000000001"/><path d="M884.64,602.2399999999999 C870.6,634.6399999999999 871.68,661.6399999999999 881.4,686.4799999999999 L894.36,687.56 C888.96,660.56 892.2,631.3999999999999 897.6,607.6399999999999 Z" fill="#d7e0df" stroke="#3d352f" stroke-width="1.7280000000000002"/><ellipse cx="883.56" cy="688.64" rx="5.4" ry="7.5600000000000005" fill="#d4aa8e" stroke="#3d352f" stroke-width="1.08"/>
        <path d="M975.36,602.2399999999999 C989.4,633.56 989.4,662.7199999999999 988.32,697.28 L967.8,688.64 C972.12,659.4799999999999 967.8,631.3999999999999 962.4,607.6399999999999 Z" fill="#d7e0df" stroke="#3d352f" stroke-width="1.7280000000000002"/><ellipse cx="988.32" cy="697.28" rx="5.4" ry="7.5600000000000005" fill="#d4aa8e" stroke="#3d352f" stroke-width="1.08"/><path d="M883.56,596.8399999999999 Q930,588.1999999999999 976.44,596.8399999999999 L963.48,687.56 Q930,696.1999999999999 896.52,687.56 Z" fill="#d7e0df" stroke="#3d352f" stroke-width="2.16"/>
    <path d="M913.8,595.7599999999999 L930,618.4399999999999 L946.2,595.7599999999999" fill="#eee9df" stroke="#746c62" stroke-width="1.1880000000000002"/><path d="M930,618.4399999999999 V678.92" stroke="#7d8581" stroke-width="1.296"/><circle cx="930" cy="636.8" r="1.62" fill="#6f7773"/><circle cx="930" cy="657.3199999999999" r="1.62" fill="#6f7773"/>
    <path d="M888.96,627.0799999999999 q19.44,5.4 38.88,1 M933.24,629.2399999999999 q19.44,4.32 36.72,-2" fill="none" stroke="#9daaa7" stroke-width="1.08" opacity=".65"/><path d="M908.4,678.92 q8.64,-11.88 16.200000000000003,0 M937.56,681.0799999999999 q8.64,-9.72 15.120000000000001,0" fill="none" stroke="#75817e" stroke-width="0.9720000000000001" opacity=".55"/><path d="M921.36,576.32 L921.36,593.5999999999999 Q930,602.2399999999999 938.64,593.5999999999999 L938.64,576.32Z" fill="#d4aa8e" stroke="#3d352f" stroke-width="1.08"/><path d="M 912.1152,544.784 Q 905.16,580.5536000000001 915.096,602.4128000000001 L 927.0192,585.5216 L 934.968,585.5216 L 947.8848,602.4128000000001 Q 955.8336,579.5600000000001 947.8848,544.784 Z" fill="#49352a" stroke="#3d352f" stroke-width="1.4904000000000002"/>
    <ellipse cx="912.1152" cy="555.7136" rx="3.5769600000000006" ry="5.464800000000001" fill="#d4aa8e" stroke="#3d352f" stroke-width="0.9936000000000001"/>
    <ellipse cx="947.8848" cy="555.7136" rx="3.5769600000000006" ry="5.464800000000001" fill="#d4aa8e" stroke="#3d352f" stroke-width="0.9936000000000001"/>
    <path d="M 930,531.8672 C 917.0832,531.8672 912.1152,542.7968000000001 912.1152,556.7072000000001 C 912.1152,569.624 921.0576,578.5664 930,579.5600000000001 C 939.936,578.5664 947.8848,568.6304 947.8848,555.7136 C 947.8848,542.7968000000001 942.9168,531.8672 930,531.8672 Z" fill="url(#skinShade)" stroke="#3d352f" stroke-width="1.4904000000000002"/>
    <path d="M 912.1152,547.7648 Q 917.0832,526.8992000000001 931.9872,528.8864 Q 946.8912,528.8864 948.8784,547.7648 Q 937.9488,541.8032000000001 930.9936,543.7904 Q 922.0512,539.816 912.1152,547.7648 Z" fill="#49352a" stroke="#3d352f" stroke-width="1.4904000000000002"/>
    <path d="M 919.0704,550.7456000000001 q 3.9744000000000006,-1.9872000000000003 7.948800000000001,0 M 932.9808,550.7456000000001 q 3.9744000000000006,-1.9872000000000003 7.948800000000001,0" fill="none" stroke="#3d352f" stroke-width="1.0929600000000002"/>
    <ellipse cx="923.0448" cy="555.7136" rx="1.4904000000000002" ry="1.7884800000000003" fill="#3d352f"/><ellipse cx="936.9552" cy="555.7136" rx="1.4904000000000002" ry="1.7884800000000003" fill="#3d352f"/>
    <path d="M 930,556.7072000000001 q -1.4904000000000002,4.968000000000001 1.4904000000000002,6.955200000000001" fill="none" stroke="#806453" stroke-width="0.8942400000000001"/>
    <path d="M 925.032,569.624 Q 930,568.82912 935.9616,569.624" fill="none" stroke="#855f57" stroke-width="1.0929600000000002" stroke-linecap="round"/>
    <g><path d="M 996.96,760.136 Q 991.2900000000001,724.1719999999999 996.96,716.612" stroke="#4e765f" stroke-width="4.5360000000000005" fill="none"/><path d="M 994.692,740.156 q -28.35,-11.340000000000002 -38.556000000000004,9.072000000000001 q 24.948000000000004,10.206000000000001 38.556000000000004,-1.1340000000000001" fill="#63866d" stroke="#46634f" stroke-width="1.701"/><path d="M 998.094,729.7664 q 28.35,-12.474000000000002 37.422000000000004,7.938000000000001 q -23.814000000000004,11.340000000000002 -37.422000000000004,1.1340000000000001" fill="#6e8d75" stroke="#46634f" stroke-width="1.701"/><ellipse cx="996.96" cy="684.8599999999999" rx="17.01" ry="27.216" transform="rotate(180 996.96 696.1999999999999)" fill="#8582a4" stroke="#504d68" stroke-width="2.0412000000000003" opacity=".96"/><ellipse cx="1010.9804751632232" cy="692.695747283788" rx="17.01" ry="27.216" transform="rotate(252 996.96 696.1999999999999)" fill="#8582a4" stroke="#504d68" stroke-width="2.0412000000000003" opacity=".96"/><ellipse cx="1005.6251301892956" cy="705.3742527162118" rx="17.01" ry="27.216" transform="rotate(-36 996.96 696.1999999999999)" fill="#8582a4" stroke="#504d68" stroke-width="2.0412000000000003" opacity=".96"/><ellipse cx="988.2948698107044" cy="705.3742527162118" rx="17.01" ry="27.216" transform="rotate(36 996.96 696.1999999999999)" fill="#8582a4" stroke="#504d68" stroke-width="2.0412000000000003" opacity=".96"/><ellipse cx="982.9395248367769" cy="692.695747283788" rx="17.01" ry="27.216" transform="rotate(108 996.96 696.1999999999999)" fill="#8582a4" stroke="#504d68" stroke-width="2.0412000000000003" opacity=".96"/><circle cx="996.96" cy="696.1999999999999" r="7.938000000000001" fill="#d2c18b" stroke="#625b4c" stroke-width="1.3608"/></g></g><polygon points="560,590 1050,590 1260,900 360,900" fill="#ecd69e" opacity=".09"/></g><rect width="1600" height="900" fill="url(#wash)" pointer-events="none"/><rect width="1600" height="900" fill="transparent" filter="url(#paper)" opacity=".65" pointer-events="none"/></svg>