<svg xmlns="http://www.w3.org/2000/svg" viewBox="0 0 1800 400"><defs><radialGradient id="skin"><stop offset="0" stop-color="#e0b69a"/><stop offset="1" stop-color="#bf8e73"/></radialGradient><linearGradient id="shirt" x1="0" y1="0" x2="0" y2="1"><stop stop-color="#eef1ec"/><stop offset="1" stop-color="#bdcac8"/></linearGradient><filter id="rough"><feTurbulence type="fractalNoise" baseFrequency=".03" numOctaves="2" seed="7"/><feDisplacementMap in="SourceGraphic" scale=".7"/></filter></defs><g transform="translate(0 0)" filter="url(#rough)"><ellipse cx="170" cy="391" rx="72" ry="10" fill="#282622" opacity=".13"/><path d="M125 195q25 55 53 170" fill="none" stroke="#c69a80" stroke-width="15" stroke-linecap="round"/><path d="M215 195q-22 55-40 170" fill="none" stroke="#c69a80" stroke-width="15" stroke-linecap="round"/><path d="M137 299v88M204 299v88" fill="none" stroke="#46545c" stroke-width="21" stroke-linecap="round"/><path d="M137 386h-28M204 386h28" stroke="#342f2b" stroke-width="13" stroke-linecap="round"/><path d="M112 169q55-16 116 0l20 133q-77 23-156 0z" fill="url(#shirt)" stroke="#42413c" stroke-width="4"/><path d="M143 166l27 31 27-31" fill="#f5f1e7" stroke="#77786f" stroke-width="2.5"/><path d="M170 197v101" stroke="#7d8883" stroke-width="2"/><circle cx="170" cy="228" r="2.7" fill="#69726f"/><circle cx="170" cy="252" r="2.7" fill="#69726f"/><ellipse cx="170" cy="106" rx="48" ry="57" fill="url(#skin)" stroke="#3a332f" stroke-width="3"/><path d="M106 99q8-67 64-65 60 6 60 78l-8 52q-17-36-52-39-30 5-58-8z" fill="#43342e" stroke="#3a332f" stroke-width="3"/><path d="M142 107q10-4 20 0M179 107q10-4 20 0" stroke="#473d38" stroke-width="3" fill="none"/><circle cx="154" cy="116" r="3.3" fill="#312c2a" transform="translate(0 0)"/><circle cx="191" cy="116" r="3.3" fill="#312c2a" transform="translate(0 0)"/><path d="M159 143q12 3 25 0" fill="none" stroke="#875f58" stroke-width="3" stroke-linecap="round"/><g transform="translate(170 100)"><path d="M0 25q-15 95-3 150M14 30q24 92 31 145M-12 36q-35 82-40 137" stroke="#55745e" stroke-width="6" fill="none"/><g fill="#7773ad" stroke="#4d4b75" stroke-width="3"><path d="M0 24c-25-8-30-36-8-44 10-22 39-14 39 7 21 7 18 34 0 40-8 18-29 15-31-3z"/><path d="M28 38c-20-10-20-32-2-39 12-18 35-7 34 12 17 10 10 31-7 34-10 14-28 8-25-7z"/><path d="M-24 45c-17-10-15-30 1-36 10-16 30-6 30 12 15 9 8 27-7 30-10 11-25 6-24-6z"/></g><g fill="#f1e2a5"><circle cx="5" cy="2" r="4"/><circle cx="37" cy="22" r="4"/><circle cx="-14" cy="31" r="4"/></g></g></g><g transform="translate(300 0)" filter="url(#rough)"><ellipse cx="170" cy="391" rx="72" ry="10" fill="#282622" opacity=".13"/><path d="M125 195q25 55 53 188" fill="none" stroke="#c69a80" stroke-width="15" stroke-linecap="round"/><path d="M215 195q-22 55-40 188" fill="none" stroke="#c69a80" stroke-width="15" stroke-linecap="round"/><path d="M137 299v88M204 299v88" fill="none" stroke="#46545c" stroke-width="21" stroke-linecap="round"/><path d="M137 386h-28M204 386h28" stroke="#342f2b" stroke-width="13" stroke-linecap="round"/><path d="M112 169q55-16 116 0l20 133q-77 23-156 0z" fill="url(#shirt)" stroke="#42413c" stroke-width="4"/><path d="M143 166l27 31 27-31" fill="#f5f1e7" stroke="#77786f" stroke-width="2.5"/><path d="M170 197v101" stroke="#7d8883" stroke-width="2"/><circle cx="170" cy="228" r="2.7" fill="#69726f"/><circle cx="170" cy="252" r="2.7" fill="#69726f"/><ellipse cx="170" cy="106" rx="48" ry="57" fill="url(#skin)" stroke="#3a332f" stroke-width="3"/><path d="M106 99q8-67 64-65 60 6 60 78l-8 52q-17-36-52-39-30 5-58-8z" fill="#43342e" stroke="#3a332f" stroke-width="3"/><path d="M142 107q10-4 20 0M179 107q10-4 20 0" stroke="#473d38" stroke-width="3" fill="none"/><circle cx="154" cy="116" r="3.3" fill="#312c2a" transform="translate(0 0)"/><circle cx="191" cy="116" r="3.3" fill="#312c2a" transform="translate(0 0)"/><path d="M159 143q12 3 25 0" fill="none" stroke="#875f58" stroke-width="3" stroke-linecap="round"/><g transform="translate(170 118)"><path d="M0 25q-15 95-3 150M14 30q24 92 31 145M-12 36q-35 82-40 137" stroke="#55745e" stroke-width="6" fill="none"/><g fill="#7773ad" stroke="#4d4b75" stroke-width="3"><path d="M0 24c-25-8-30-36-8-44 10-22 39-14 39 7 21 7 18 34 0 40-8 18-29 15-31-3z"/><path d="M28 38c-20-10-20-32-2-39 12-18 35-7 34 12 17 10 10 31-7 34-10 14-28 8-25-7z"/><path d="M-24 45c-17-10-15-30 1-36 10-16 30-6 30 12 15 9 8 27-7 30-10 11-25 6-24-6z"/></g><g fill="#f1e2a5"><circle cx="5" cy="2" r="4"/><circle cx="37" cy="22" r="4"/><circle cx="-14" cy="31" r="4"/></g></g></g><g transform="translate(600 0)" filter="url(#rough)"><ellipse cx="170" cy="391" rx="72" ry="10" fill="#282622" opacity=".13"/><path d="M125 195q25 55 53 206" fill="none" stroke="#c69a80" stroke-width="15" stroke-linecap="round"/><path d="M215 195q-22 55-40 206" fill="none" stroke="#c69a80" stroke-width="15" stroke-linecap="round"/><path d="M137 299v88M204 299v88" fill="none" stroke="#46545c" stroke-width="21" stroke-linecap="round"/><path d="M137 386h-28M204 386h28" stroke="#342f2b" stroke-width="13" stroke-linecap="round"/><path d="M112 169q55-16 116 0l20 133q-77 23-156 0z" fill="url(#shirt)" stroke="#42413c" stroke-width="4"/><path d="M143 166l27 31 27-31" fill="#f5f1e7" stroke="#77786f" stroke-width="2.5"/><path d="M170 197v101" stroke="#7d8883" stroke-width="2"/><circle cx="170" cy="228" r="2.7" fill="#69726f"/><circle cx="170" cy="252" r="2.7" fill="#69726f"/><ellipse cx="170" cy="106" rx="48" ry="57" fill="url(#skin)" stroke="#3a332f" stroke-width="3"/><path d="M106 99q8-67 64-65 60 6 60 78l-8 52q-17-36-52-39-30 5-58-8z" fill="#43342e" stroke="#3a332f" stroke-width="3"/><path d="M142 107q10-4 20 0M179 107q10-4 20 0" stroke="#473d38" stroke-width="3" fill="none"/><circle cx="154" cy="116" r="3.3" fill="#312c2a" transform="translate(0 0)"/><circle cx="191" cy="116" r="3.3" fill="#312c2a" transform="translate(0 0)"/><path d="M159 143q12 3 25 0" fill="none" stroke="#875f58" stroke-width="3" stroke-linecap="round"/><g transform="translate(170 136)"><path d="M0 25q-15 95-3 150M14 30q24 92 31 145M-12 36q-35 82-40 137" stroke="#55745e" stroke-width="6" fill="none"/><g fill="#7773ad" stroke="#4d4b75" stroke-width="3"><path d="M0 24c-25-8-30-36-8-44 10-22 39-14 39 7 21 7 18 34 0 40-8 18-29 15-31-3z"/><path d="M28 38c-20-10-20-32-2-39 12-18 35-7 34 12 17 10 10 31-7 34-10 14-28 8-25-7z"/><path d="M-24 45c-17-10-15-30 1-36 10-16 30-6 30 12 15 9 8 27-7 30-10 11-25 6-24-6z"/></g><g fill="#f1e2a5"><circle cx="5" cy="2" r="4"/><circle cx="37" cy="22" r="4"/><circle cx="-14" cy="31" r="4"/></g></g></g><g transform="translate(900 0)" filter="url(#rough)"><ellipse cx="170" cy="391" rx="72" ry="10" fill="#282622" opacity=".13"/><path d="M125 195q25 55 53 224" fill="none" stroke="#c69a80" stroke-width="15" stroke-linecap="round"/><path d="M215 195q-22 55-40 224" fill="none" stroke="#c69a80" stroke-width="15" stroke-linecap="round"/><path d="M137 299v88M204 299v88" fill="none" stroke="#46545c" stroke-width="21" stroke-linecap="round"/><path d="M137 386h-28M204 386h28" stroke="#342f2b" stroke-width="13" stroke-linecap="round"/><path d="M112 169q55-16 116 0l20 133q-77 23-156 0z" fill="url(#shirt)" stroke="#42413c" stroke-width="4"/><path d="M143 166l27 31 27-31" fill="#f5f1e7" stroke="#77786f" stroke-width="2.5"/><path d="M170 197v101" stroke="#7d8883" stroke-width="2"/><circle cx="170" cy="228" r="2.7" fill="#69726f"/><circle cx="170" cy="252" r="2.7" fill="#69726f"/><ellipse cx="170" cy="106" rx="48" ry="57" fill="url(#skin)" stroke="#3a332f" stroke-width="3"/><path d="M106 99q8-67 64-65 60 6 60 78l-8 52q-17-36-52-39-30 5-58-8z" fill="#43342e" stroke="#3a332f" stroke-width="3"/><path d="M142 107q10-4 20 0M179 107q10-4 20 0" stroke="#473d38" stroke-width="3" fill="none"/><circle cx="154" cy="116" r="3.3" fill="#312c2a" transform="translate(0 0)"/><circle cx="191" cy="116" r="3.3" fill="#312c2a" transform="translate(0 0)"/><path d="M159 143q12 3 25 0" fill="none" stroke="#875f58" stroke-width="3" stroke-linecap="round"/><g transform="translate(170 154)"><path d="M0 25q-15 95-3 150M14 30q24 92 31 145M-12 36q-35 82-40 137" stroke="#55745e" stroke-width="6" fill="none"/><g fill="#7773ad" stroke="#4d4b75" stroke-width="3"><path d="M0 24c-25-8-30-36-8-44 10-22 39-14 39 7 21 7 18 34 0 40-8 18-29 15-31-3z"/><path d="M28 38c-20-10-20-32-2-39 12-18 35-7 34 12 17 10 10 31-7 34-10 14-28 8-25-7z"/><path d="M-24 45c-17-10-15-30 1-36 10-16 30-6 30 12 15 9 8 27-7 30-10 11-25 6-24-6z"/></g><g fill="#f1e2a5"><circle cx="5" cy="2" r="4"/><circle cx="37" cy="22" r="4"/><circle cx="-14" cy="31" r="4"/></g></g></g><g transform="translate(1200 0)" filter="url(#rough)"><ellipse cx="170" cy="391" rx="72" ry="10" fill="#282622" opacity=".13"/><path d="M125 195q25 55 53 242" fill="none" stroke="#c69a80" stroke-width="15" stroke-linecap="round"/><path d="M215 195q-22 55-40 242" fill="none" stroke="#c69a80" stroke-width="15" stroke-linecap="round"/><path d="M137 299v88M204 299v88" fill="none" stroke="#46545c" stroke-width="21" stroke-linecap="round"/><path d="M137 386h-28M204 386h28" stroke="#342f2b" stroke-width="13" stroke-linecap="round"/><path d="M112 169q55-16 116 0l20 133q-77 23-156 0z" fill="url(#shirt)" stroke="#42413c" stroke-width="4"/><path d="M143 166l27 31 27-31" fill="#f5f1e7" stroke="#77786f" stroke-width="2.5"/><path d="M170 197v101" stroke="#7d8883" stroke-width="2"/><circle cx="170" cy="228" r="2.7" fill="#69726f"/><circle cx="170" cy="252" r="2.7" fill="#69726f"/><ellipse cx="170" cy="106" rx="48" ry="57" fill="url(#skin)" stroke="#3a332f" stroke-width="3"/><path d="M106 99q8-67 64-65 60 6 60 78l-8 52q-17-36-52-39-30 5-58-8z" fill="#43342e" stroke="#3a332f" stroke-width="3"/><path d="M142 107q10-4 20 0M179 107q10-4 20 0" stroke="#473d38" stroke-width="3" fill="none"/><circle cx="154" cy="116" r="3.3" fill="#312c2a" transform="translate(0 0)"/><circle cx="191" cy="116" r="3.3" fill="#312c2a" transform="translate(0 0)"/><path d="M159 143q12 3 25 0" fill="none" stroke="#875f58" stroke-width="3" stroke-linecap="round"/><g transform="translate(170 172)"><path d="M0 25q-15 95-3 150M14 30q24 92 31 145M-12 36q-35 82-40 137" stroke="#55745e" stroke-width="6" fill="none"/><g fill="#7773ad" stroke="#4d4b75" stroke-width="3"><path d="M0 24c-25-8-30-36-8-44 10-22 39-14 39 7 21 7 18 34 0 40-8 18-29 15-31-3z"/><path d="M28 38c-20-10-20-32-2-39 12-18 35-7 34 12 17 10 10 31-7 34-10 14-28 8-25-7z"/><path d="M-24 45c-17-10-15-30 1-36 10-16 30-6 30 12 15 9 8 27-7 30-10 11-25 6-24-6z"/></g><g fill="#f1e2a5"><circle cx="5" cy="2" r="4"/><circle cx="37" cy="22" r="4"/><circle cx="-14" cy="31" r="4"/></g></g></g><g transform="translate(1500 0)" filter="url(#rough)"><ellipse cx="170" cy="391" rx="72" ry="10" fill="#282622" opacity=".13"/><path d="M125 195q25 55 53 260" fill="none" stroke="#c69a80" stroke-width="15" stroke-linecap="round"/><path d="M215 195q-22 55-40 260" fill="none" stroke="#c69a80" stroke-width="15" stroke-linecap="round"/><path d="M137 299v88M204 299v88" fill="none" stroke="#46545c" stroke-width="21" stroke-linecap="round"/><path d="M137 386h-28M204 386h28" stroke="#342f2b" stroke-width="13" stroke-linecap="round"/><path d="M112 169q55-16 116 0l20 133q-77 23-156 0z" fill="url(#shirt)" stroke="#42413c" stroke-width="4"/><path d="M143 166l27 31 27-31" fill="#f5f1e7" stroke="#77786f" stroke-width="2.5"/><path d="M170 197v101" stroke="#7d8883" stroke-width="2"/><circle cx="170" cy="228" r="2.7" fill="#69726f"/><circle cx="170" cy="252" r="2.7" fill="#69726f"/><ellipse cx="170" cy="106" rx="48" ry="57" fill="url(#skin)" stroke="#3a332f" stroke-width="3"/><path d="M106 99q8-67 64-65 60 6 60 78l-8 52q-17-36-52-39-30 5-58-8z" fill="#43342e" stroke="#3a332f" stroke-width="3"/><path d="M142 107q10-4 20 0M179 107q10-4 20 0" stroke="#473d38" stroke-width="3" fill="none"/><circle cx="154" cy="116" r="3.3" fill="#312c2a" transform="translate(0 0)"/><circle cx="191" cy="116" r="3.3" fill="#312c2a" transform="translate(0 0)"/><path d="M159 143q12 3 25 0" fill="none" stroke="#875f58" stroke-width="3" stroke-linecap="round"/><g transform="translate(170 190)"><path d="M0 25q-15 95-3 150M14 30q24 92 31 145M-12 36q-35 82-40 137" stroke="#55745e" stroke-width="6" fill="none"/><g fill="#7773ad" stroke="#4d4b75" stroke-width="3"><path d="M0 24c-25-8-30-36-8-44 10-22 39-14 39 7 21 7 18 34 0 40-8 18-29 15-31-3z"/><path d="M28 38c-20-10-20-32-2-39 12-18 35-7 34 12 17 10 10 31-7 34-10 14-28 8-25-7z"/><path d="M-24 45c-17-10-15-30 1-36 10-16 30-6 30 12 15 9 8 27-7 30-10 11-25 6-24-6z"/></g><g fill="#f1e2a5"><circle cx="5" cy="2" r="4"/><circle cx="37" cy="22" r="4"/><circle cx="-14" cy="31" r="4"/></g></g></g></svg>