<svg xmlns="http://www.w3.org/2000/svg" viewBox="0 0 2400 400"><defs><radialGradient id="skin"><stop offset="0" stop-color="#e0b69a"/><stop offset="1" stop-color="#bf8e73"/></radialGradient><linearGradient id="shirt" x1="0" y1="0" x2="0" y2="1"><stop stop-color="#eef1ec"/><stop offset="1" stop-color="#bdcac8"/></linearGradient><filter id="rough"><feTurbulence type="fractalNoise" baseFrequency=".03" numOctaves="2" seed="7"/><feDisplacementMap in="SourceGraphic" scale=".7"/></filter></defs><g transform="translate(0 0)" filter="url(#rough)"><ellipse cx="170" cy="391" rx="72" ry="10" fill="#282622" opacity=".13"/><path d="M127 190q-31.999999999999996 55 -26.999999999999996 104" fill="none" stroke="#c69a80" stroke-width="15" stroke-linecap="round"/><path d="M216 190q31.999999999999996 55 26.999999999999996 104" fill="none" stroke="#c69a80" stroke-width="15" stroke-linecap="round"/><path d="M137 299Q137.0 345 128.0 385" fill="none" stroke="#46545c" stroke-width="21" stroke-linecap="round"/><path d="M204 299Q204.0 345 213.0 385" fill="none" stroke="#46545c" stroke-width="21" stroke-linecap="round"/><path d="M128.0 386h-28" stroke="#342f2b" stroke-width="13" stroke-linecap="round"/><path d="M213.0 386h28" stroke="#342f2b" stroke-width="13" stroke-linecap="round"/><path d="M112 169q55-16 116 0l20 133q-77 23-156 0z" fill="url(#shirt)" stroke="#42413c" stroke-width="4"/><path d="M143 166l27 31 27-31" fill="#f5f1e7" stroke="#77786f" stroke-width="2.5"/><path d="M170 197v101" stroke="#7d8883" stroke-width="2"/><circle cx="170" cy="228" r="2.7" fill="#69726f"/><circle cx="170" cy="252" r="2.7" fill="#69726f"/><ellipse cx="170" cy="106" rx="48" ry="57" fill="url(#skin)" stroke="#3a332f" stroke-width="3"/><path d="M106 99q8-67 64-65 60 6 60 78l-8 52q-17-36-52-39-30 5-58-8z" fill="#43342e" stroke="#3a332f" stroke-width="3"/><path d="M142 105q10-4 20 0M179 109q10-4 20 0" stroke="#473d38" stroke-width="3" fill="none"/><circle cx="154" cy="116" r="3.3" fill="#312c2a" transform="translate(-13 0)"/><circle cx="191" cy="116" r="3.3" fill="#312c2a" transform="translate(-13 0)"/><path d="M159 143q12 5 25 0" fill="none" stroke="#875f58" stroke-width="3" stroke-linecap="round"/></g><g transform="translate(300 0)" filter="url(#rough)"><ellipse cx="170" cy="391" rx="72" ry="10" fill="#282622" opacity=".13"/><path d="M127 190q-31.999999999999996 55 -26.999999999999996 104" fill="none" stroke="#c69a80" stroke-width="15" stroke-linecap="round"/><path d="M216 190q31.999999999999996 55 26.999999999999996 104" fill="none" stroke="#c69a80" stroke-width="15" stroke-linecap="round"/><path d="M137 299Q137.0 345 128.0 385" fill="none" stroke="#46545c" stroke-width="21" stroke-linecap="round"/><path d="M204 299Q204.0 345 213.0 385" fill="none" stroke="#46545c" stroke-width="21" stroke-linecap="round"/><path d="M128.0 386h-28" stroke="#342f2b" stroke-width="13" stroke-linecap="round"/><path d="M213.0 386h28" stroke="#342f2b" stroke-width="13" stroke-linecap="round"/><path d="M112 169q55-16 116 0l20 133q-77 23-156 0z" fill="url(#shirt)" stroke="#42413c" stroke-width="4"/><path d="M143 166l27 31 27-31" fill="#f5f1e7" stroke="#77786f" stroke-width="2.5"/><path d="M170 197v101" stroke="#7d8883" stroke-width="2"/><circle cx="170" cy="228" r="2.7" fill="#69726f"/><circle cx="170" cy="252" r="2.7" fill="#69726f"/><ellipse cx="170" cy="106" rx="48" ry="57" fill="url(#skin)" stroke="#3a332f" stroke-width="3"/><path d="M106 99q8-67 64-65 60 6 60 78l-8 52q-17-36-52-39-30 5-58-8z" fill="#43342e" stroke="#3a332f" stroke-width="3"/><path d="M142 105.5q10-4 20 0M179 108.5q10-4 20 0" stroke="#473d38" stroke-width="3" fill="none"/><circle cx="154" cy="116" r="3.3" fill="#312c2a" transform="translate(-9.75 0)"/><circle cx="191" cy="116" r="3.3" fill="#312c2a" transform="translate(-9.75 0)"/><path d="M159 143q12 4.5 25 0" fill="none" stroke="#875f58" stroke-width="3" stroke-linecap="round"/></g><g transform="translate(600 0)" filter="url(#rough)"><ellipse cx="170" cy="391" rx="72" ry="10" fill="#282622" opacity=".13"/><path d="M127 190q-31.999999999999996 55 -26.999999999999996 104" fill="none" stroke="#c69a80" stroke-width="15" stroke-linecap="round"/><path d="M216 190q31.999999999999996 55 26.999999999999996 104" fill="none" stroke="#c69a80" stroke-width="15" stroke-linecap="round"/><path d="M137 299Q137.0 345 128.0 385" fill="none" stroke="#46545c" stroke-width="21" stroke-linecap="round"/><path d="M204 299Q204.0 345 213.0 385" fill="none" stroke="#46545c" stroke-width="21" stroke-linecap="round"/><path d="M128.0 386h-28" stroke="#342f2b" stroke-width="13" stroke-linecap="round"/><path d="M213.0 386h28" stroke="#342f2b" stroke-width="13" stroke-linecap="round"/><path d="M112 169q55-16 116 0l20 133q-77 23-156 0z" fill="url(#shirt)" stroke="#42413c" stroke-width="4"/><path d="M143 166l27 31 27-31" fill="#f5f1e7" stroke="#77786f" stroke-width="2.5"/><path d="M170 197v101" stroke="#7d8883" stroke-width="2"/><circle cx="170" cy="228" r="2.7" fill="#69726f"/><circle cx="170" cy="252" r="2.7" fill="#69726f"/><ellipse cx="170" cy="106" rx="48" ry="57" fill="url(#skin)" stroke="#3a332f" stroke-width="3"/><path d="M106 99q8-67 64-65 60 6 60 78l-8 52q-17-36-52-39-30 5-58-8z" fill="#43342e" stroke="#3a332f" stroke-width="3"/><path d="M142 106.1q10-4 20 0M179 107.9q10-4 20 0" stroke="#473d38" stroke-width="3" fill="none"/><circle cx="154" cy="116" r="3.3" fill="#312c2a" transform="translate(-5.8500000000000005 0)"/><circle cx="191" cy="116" r="3.3" fill="#312c2a" transform="translate(-5.8500000000000005 0)"/><path d="M159 143q12 3.9 25 0" fill="none" stroke="#875f58" stroke-width="3" stroke-linecap="round"/></g><g transform="translate(900 0)" filter="url(#rough)"><ellipse cx="170" cy="391" rx="72" ry="10" fill="#282622" opacity=".13"/><path d="M127 190q-31.999999999999996 55 -26.999999999999996 104" fill="none" stroke="#c69a80" stroke-width="15" stroke-linecap="round"/><path d="M216 190q31.999999999999996 55 26.999999999999996 104" fill="none" stroke="#c69a80" stroke-width="15" stroke-linecap="round"/><path d="M137 299Q137.0 345 128.0 385" fill="none" stroke="#46545c" stroke-width="21" stroke-linecap="round"/><path d="M204 299Q204.0 345 213.0 385" fill="none" stroke="#46545c" stroke-width="21" stroke-linecap="round"/><path d="M128.0 386h-28" stroke="#342f2b" stroke-width="13" stroke-linecap="round"/><path d="M213.0 386h28" stroke="#342f2b" stroke-width="13" stroke-linecap="round"/><path d="M112 169q55-16 116 0l20 133q-77 23-156 0z" fill="url(#shirt)" stroke="#42413c" stroke-width="4"/><path d="M143 166l27 31 27-31" fill="#f5f1e7" stroke="#77786f" stroke-width="2.5"/><path d="M170 197v101" stroke="#7d8883" stroke-width="2"/><circle cx="170" cy="228" r="2.7" fill="#69726f"/><circle cx="170" cy="252" r="2.7" fill="#69726f"/><ellipse cx="170" cy="106" rx="48" ry="57" fill="url(#skin)" stroke="#3a332f" stroke-width="3"/><path d="M106 99q8-67 64-65 60 6 60 78l-8 52q-17-36-52-39-30 5-58-8z" fill="#43342e" stroke="#3a332f" stroke-width="3"/><path d="M142 106.7q10-4 20 0M179 107.3q10-4 20 0" stroke="#473d38" stroke-width="3" fill="none"/><circle cx="154" cy="116" r="3.3" fill="#312c2a" transform="translate(-1.95 0)"/><circle cx="191" cy="116" r="3.3" fill="#312c2a" transform="translate(-1.95 0)"/><path d="M159 143q12 3.3 25 0" fill="none" stroke="#875f58" stroke-width="3" stroke-linecap="round"/></g><g transform="translate(1200 0)" filter="url(#rough)"><ellipse cx="170" cy="391" rx="72" ry="10" fill="#282622" opacity=".13"/><path d="M127 190q-31.999999999999996 55 -26.999999999999996 104" fill="none" stroke="#c69a80" stroke-width="15" stroke-linecap="round"/><path d="M216 190q31.999999999999996 55 26.999999999999996 104" fill="none" stroke="#c69a80" stroke-width="15" stroke-linecap="round"/><path d="M137 299Q137.0 345 128.0 385" fill="none" stroke="#46545c" stroke-width="21" stroke-linecap="round"/><path d="M204 299Q204.0 345 213.0 385" fill="none" stroke="#46545c" stroke-width="21" stroke-linecap="round"/><path d="M128.0 386h-28" stroke="#342f2b" stroke-width="13" stroke-linecap="round"/><path d="M213.0 386h28" stroke="#342f2b" stroke-width="13" stroke-linecap="round"/><path d="M112 169q55-16 116 0l20 133q-77 23-156 0z" fill="url(#shirt)" stroke="#42413c" stroke-width="4"/><path d="M143 166l27 31 27-31" fill="#f5f1e7" stroke="#77786f" stroke-width="2.5"/><path d="M170 197v101" stroke="#7d8883" stroke-width="2"/><circle cx="170" cy="228" r="2.7" fill="#69726f"/><circle cx="170" cy="252" r="2.7" fill="#69726f"/><ellipse cx="170" cy="106" rx="48" ry="57" fill="url(#skin)" stroke="#3a332f" stroke-width="3"/><path d="M106 99q8-67 64-65 60 6 60 78l-8 52q-17-36-52-39-30 5-58-8z" fill="#43342e" stroke="#3a332f" stroke-width="3"/><path d="M142 107.3q10-4 20 0M179 106.7q10-4 20 0" stroke="#473d38" stroke-width="3" fill="none"/><circle cx="154" cy="116" r="3.3" fill="#312c2a" transform="translate(1.95 0)"/><circle cx="191" cy="116" r="3.3" fill="#312c2a" transform="translate(1.95 0)"/><path d="M159 143q12 2.7 25 0" fill="none" stroke="#875f58" stroke-width="3" stroke-linecap="round"/></g><g transform="translate(1500 0)" filter="url(#rough)"><ellipse cx="170" cy="391" rx="72" ry="10" fill="#282622" opacity=".13"/><path d="M127 190q-31.999999999999996 55 -26.999999999999996 104" fill="none" stroke="#c69a80" stroke-width="15" stroke-linecap="round"/><path d="M216 190q31.999999999999996 55 26.999999999999996 104" fill="none" stroke="#c69a80" stroke-width="15" stroke-linecap="round"/><path d="M137 299Q137.0 345 128.0 385" fill="none" stroke="#46545c" stroke-width="21" stroke-linecap="round"/><path d="M204 299Q204.0 345 213.0 385" fill="none" stroke="#46545c" stroke-width="21" stroke-linecap="round"/><path d="M128.0 386h-28" stroke="#342f2b" stroke-width="13" stroke-linecap="round"/><path d="M213.0 386h28" stroke="#342f2b" stroke-width="13" stroke-linecap="round"/><path d="M112 169q55-16 116 0l20 133q-77 23-156 0z" fill="url(#shirt)" stroke="#42413c" stroke-width="4"/><path d="M143 166l27 31 27-31" fill="#f5f1e7" stroke="#77786f" stroke-width="2.5"/><path d="M170 197v101" stroke="#7d8883" stroke-width="2"/><circle cx="170" cy="228" r="2.7" fill="#69726f"/><circle cx="170" cy="252" r="2.7" fill="#69726f"/><ellipse cx="170" cy="106" rx="48" ry="57" fill="url(#skin)" stroke="#3a332f" stroke-width="3"/><path d="M106 99q8-67 64-65 60 6 60 78l-8 52q-17-36-52-39-30 5-58-8z" fill="#43342e" stroke="#3a332f" stroke-width="3"/><path d="M142 107.9q10-4 20 0M179 106.1q10-4 20 0" stroke="#473d38" stroke-width="3" fill="none"/><circle cx="154" cy="116" r="3.3" fill="#312c2a" transform="translate(5.8500000000000005 0)"/><circle cx="191" cy="116" r="3.3" fill="#312c2a" transform="translate(5.8500000000000005 0)"/><path d="M159 143q12 2.1 25 0" fill="none" stroke="#875f58" stroke-width="3" stroke-linecap="round"/></g><g transform="translate(1800 0)" filter="url(#rough)"><ellipse cx="170" cy="391" rx="72" ry="10" fill="#282622" opacity=".13"/><path d="M127 190q-31.999999999999996 55 -26.999999999999996 104" fill="none" stroke="#c69a80" stroke-width="15" stroke-linecap="round"/><path d="M216 190q31.999999999999996 55 26.999999999999996 104" fill="none" stroke="#c69a80" stroke-width="15" stroke-linecap="round"/><path d="M137 299Q137.0 345 128.0 385" fill="none" stroke="#46545c" stroke-width="21" stroke-linecap="round"/><path d="M204 299Q204.0 345 213.0 385" fill="none" stroke="#46545c" stroke-width="21" stroke-linecap="round"/><path d="M128.0 386h-28" stroke="#342f2b" stroke-width="13" stroke-linecap="round"/><path d="M213.0 386h28" stroke="#342f2b" stroke-width="13" stroke-linecap="round"/><path d="M112 169q55-16 116 0l20 133q-77 23-156 0z" fill="url(#shirt)" stroke="#42413c" stroke-width="4"/><path d="M143 166l27 31 27-31" fill="#f5f1e7" stroke="#77786f" stroke-width="2.5"/><path d="M170 197v101" stroke="#7d8883" stroke-width="2"/><circle cx="170" cy="228" r="2.7" fill="#69726f"/><circle cx="170" cy="252" r="2.7" fill="#69726f"/><ellipse cx="170" cy="106" rx="48" ry="57" fill="url(#skin)" stroke="#3a332f" stroke-width="3"/><path d="M106 99q8-67 64-65 60 6 60 78l-8 52q-17-36-52-39-30 5-58-8z" fill="#43342e" stroke="#3a332f" stroke-width="3"/><path d="M142 108.5q10-4 20 0M179 105.5q10-4 20 0" stroke="#473d38" stroke-width="3" fill="none"/><circle cx="154" cy="116" r="3.3" fill="#312c2a" transform="translate(9.75 0)"/><circle cx="191" cy="116" r="3.3" fill="#312c2a" transform="translate(9.75 0)"/><path d="M159 143q12 1.5 25 0" fill="none" stroke="#875f58" stroke-width="3" stroke-linecap="round"/></g><g transform="translate(2100 0)" filter="url(#rough)"><ellipse cx="170" cy="391" rx="72" ry="10" fill="#282622" opacity=".13"/><path d="M127 190q-31.999999999999996 55 -26.999999999999996 104" fill="none" stroke="#c69a80" stroke-width="15" stroke-linecap="round"/><path d="M216 190q31.999999999999996 55 26.999999999999996 104" fill="none" stroke="#c69a80" stroke-width="15" stroke-linecap="round"/><path d="M137 299Q137.0 345 128.0 385" fill="none" stroke="#46545c" stroke-width="21" stroke-linecap="round"/><path d="M204 299Q204.0 345 213.0 385" fill="none" stroke="#46545c" stroke-width="21" stroke-linecap="round"/><path d="M128.0 386h-28" stroke="#342f2b" stroke-width="13" stroke-linecap="round"/><path d="M213.0 386h28" stroke="#342f2b" stroke-width="13" stroke-linecap="round"/><path d="M112 169q55-16 116 0l20 133q-77 23-156 0z" fill="url(#shirt)" stroke="#42413c" stroke-width="4"/><path d="M143 166l27 31 27-31" fill="#f5f1e7" stroke="#77786f" stroke-width="2.5"/><path d="M170 197v101" stroke="#7d8883" stroke-width="2"/><circle cx="170" cy="228" r="2.7" fill="#69726f"/><circle cx="170" cy="252" r="2.7" fill="#69726f"/><ellipse cx="170" cy="106" rx="48" ry="57" fill="url(#skin)" stroke="#3a332f" stroke-width="3"/><path d="M106 99q8-67 64-65 60 6 60 78l-8 52q-17-36-52-39-30 5-58-8z" fill="#43342e" stroke="#3a332f" stroke-width="3"/><path d="M142 109q10-4 20 0M179 105q10-4 20 0" stroke="#473d38" stroke-width="3" fill="none"/><circle cx="154" cy="116" r="3.3" fill="#312c2a" transform="translate(13 0)"/><circle cx="191" cy="116" r="3.3" fill="#312c2a" transform="translate(13 0)"/><path d="M159 143q12 1 25 0" fill="none" stroke="#875f58" stroke-width="3" stroke-linecap="round"/></g></svg>