<svg xmlns="http://www.w3.org/2000/svg" viewBox="0 0 1600 900"><defs><linearGradient id="sky" x1="0" y1="0" x2="0" y2="1"><stop stop-color="#d9b97c"/><stop offset=".5" stop-color="#c69070"/><stop offset="1" stop-color="#6f6f68"/></linearGradient><linearGradient id="ground" x1="0" y1="0" x2="1" y2="0"><stop stop-color="#6c745f"/><stop offset="1" stop-color="#4f5d53"/></linearGradient><filter id="g"><feTurbulence baseFrequency=".75" numOctaves="2" seed="8"/><feColorMatrix values="1 0 0 0 0 0 1 0 0 0 0 0 1 0 0 0 0 0 .07 0"/></filter></defs><rect width="1600" height="900" fill="url(#sky)"/><circle cx="1265" cy="150" r="88" fill="#efd49b" opacity=".85"/><path d="M0 500 Q250 410 490 510 T920 485 T1320 500 T1600 455 V900 H0Z" fill="#536b5d"/><path d="M0 570 Q310 490 570 580 T1080 555 T1600 520 V900 H0Z" fill="#3e594f" opacity=".9"/><rect y="655" width="1600" height="245" fill="url(#ground)"/><g fill="none" stroke="#8e795f" stroke-width="18"><path d="M160 680h1260"/><path d="M190 740h1200"/><path d="M230 800h1120"/></g><g stroke="#5b4c3d" stroke-width="10"><path d="M240 680l-30 170M520 680l-18 170M790 680v170M1060 680l18 170M1340 680l28 170"/></g><g fill="#f1dfb0" opacity=".55"><circle cx="190" cy="370" r="5"/><circle cx="310" cy="420" r="4"/><circle cx="625" cy="350" r="3"/><circle cx="905" cy="435" r="4"/><circle cx="1140" cy="395" r="5"/></g><path d="M0 620 C320 590 590 610 810 600 S1260 570 1600 605" stroke="#c7b184" stroke-width="3" opacity=".6" fill="none"/><rect width="1600" height="900" filter="url(#g)"/></svg>
